<mxfile host="65bd71144e">
    <diagram id="ZozP5M7au8oOhmPym215" name="Page-1">
        <mxGraphModel dx="6370" dy="2000" grid="1" gridSize="10" guides="1" tooltips="1" connect="1" arrows="1" fold="1" page="1" pageScale="1" pageWidth="850" pageHeight="1100" math="0" shadow="0">
            <root>
                <mxCell id="0"/>
                <mxCell id="1" parent="0"/>
                <mxCell id="uq6J82kQhkx34AfBlAG0-4" value="&lt;b&gt;&lt;font style=&quot;font-size: 26px;&quot;&gt;FLOW&lt;/font&gt;&lt;/b&gt;" style="text;html=1;strokeColor=none;fillColor=none;align=center;verticalAlign=middle;whiteSpace=wrap;rounded=0;fontSize=23;" parent="1" vertex="1">
                    <mxGeometry x="399.99999999999994" y="25.47" width="390" height="135" as="geometry"/>
                </mxCell>
                <mxCell id="AZxkv2wSo8y8Im1Z0squ-279" value="&lt;b&gt;STRUCTURE OF FLOW&lt;/b&gt;" style="text;whiteSpace=wrap;html=1;fontSize=26;" parent="1" vertex="1">
                    <mxGeometry x="540" y="-10" width="550" height="40" as="geometry"/>
                </mxCell>
                <mxCell id="AZxkv2wSo8y8Im1Z0squ-282" value="&lt;div style=&quot;font-size: 23px&quot;&gt;&lt;b&gt;STRUCTURE OF SCRIPT&lt;/b&gt;&lt;/div&gt;&lt;div&gt;&lt;b&gt;&lt;br&gt;&lt;/b&gt;&lt;/div&gt;" style="text;whiteSpace=wrap;html=1;fontSize=13;" parent="1" vertex="1">
                    <mxGeometry x="1316.59" width="325" height="30" as="geometry"/>
                </mxCell>
                <mxCell id="AZxkv2wSo8y8Im1Z0squ-292" value="&lt;div&gt;&lt;b&gt;&lt;font style=&quot;font-size: 18px;&quot;&gt;HOW MISC, PRE_RESPONSE_PROCESSING, TRANSITIONS &lt;br&gt;&lt;/font&gt;&lt;/b&gt;&lt;/div&gt;&lt;div&gt;&lt;b&gt;&lt;font style=&quot;font-size: 18px;&quot;&gt;AND PRE_TRANSITION_PROCESSING ARE OVERWRITTEN&lt;/font&gt;&lt;/b&gt;&lt;/div&gt;" style="text;html=1;align=center;verticalAlign=middle;resizable=0;points=[];autosize=1;strokeColor=none;fillColor=none;fontSize=13;" parent="1" vertex="1">
                    <mxGeometry x="2090" y="10" width="610" height="40" as="geometry"/>
                </mxCell>
                <mxCell id="LytQKXKxW46ozk3O3UgS-1024" value="&lt;font style=&quot;font-size: 24px&quot;&gt;&lt;b&gt;STRUCTURE OF NODE&lt;/b&gt;&lt;/font&gt;" style="text;html=1;strokeColor=none;fillColor=none;align=center;verticalAlign=middle;whiteSpace=wrap;rounded=0;fontSize=25;" parent="1" vertex="1">
                    <mxGeometry x="1641.5900000000001" y="-1090" width="495.78" height="250" as="geometry"/>
                </mxCell>
                <mxCell id="LytQKXKxW46ozk3O3UgS-1029" value="NODE1" style="rounded=1;whiteSpace=wrap;html=1;fontSize=25;fillColor=#dae8fc;strokeColor=#6c8ebf;" parent="1" vertex="1">
                    <mxGeometry x="181.19" y="350" width="220" height="195" as="geometry"/>
                </mxCell>
                <mxCell id="LytQKXKxW46ozk3O3UgS-1031" value="NODE2" style="rounded=1;whiteSpace=wrap;html=1;fontSize=25;fillColor=#dae8fc;strokeColor=#6c8ebf;" parent="1" vertex="1">
                    <mxGeometry x="463.29" y="350" width="220" height="195" as="geometry"/>
                </mxCell>
                <mxCell id="LytQKXKxW46ozk3O3UgS-1032" value="NODE3" style="rounded=1;whiteSpace=wrap;html=1;fontSize=25;fillColor=#dae8fc;strokeColor=#6c8ebf;" parent="1" vertex="1">
                    <mxGeometry x="740" y="350" width="220" height="195" as="geometry"/>
                </mxCell>
                <mxCell id="LytQKXKxW46ozk3O3UgS-1034" value="" style="rounded=1;whiteSpace=wrap;html=1;fontSize=25;fillColor=none;" parent="1" vertex="1">
                    <mxGeometry x="127.51" y="47.139999999999986" width="880" height="600" as="geometry"/>
                </mxCell>
                <mxCell id="LytQKXKxW46ozk3O3UgS-1124" value="" style="endArrow=none;dashed=1;html=1;dashPattern=1 3;strokeWidth=2;fontSize=25;" parent="1" edge="1">
                    <mxGeometry width="50" height="50" relative="1" as="geometry">
                        <mxPoint x="1021" y="1073.61" as="sourcePoint"/>
                        <mxPoint x="1010" y="-36.39" as="targetPoint"/>
                    </mxGeometry>
                </mxCell>
                <mxCell id="LytQKXKxW46ozk3O3UgS-1125" value="" style="endArrow=none;dashed=1;html=1;dashPattern=1 3;strokeWidth=2;fontSize=25;" parent="1" edge="1">
                    <mxGeometry width="50" height="50" relative="1" as="geometry">
                        <mxPoint y="-30" as="sourcePoint"/>
                        <mxPoint x="5940" y="-20" as="targetPoint"/>
                    </mxGeometry>
                </mxCell>
                <mxCell id="LytQKXKxW46ozk3O3UgS-1126" value="" style="endArrow=none;dashed=1;html=1;dashPattern=1 3;strokeWidth=2;fontSize=25;" parent="1" edge="1">
                    <mxGeometry width="50" height="50" relative="1" as="geometry">
                        <mxPoint x="2073.19" y="-10" as="sourcePoint"/>
                        <mxPoint x="2083.19" y="1081" as="targetPoint"/>
                    </mxGeometry>
                </mxCell>
                <mxCell id="OooqWEhw0Vrew64uAaYq-251" value="&lt;b&gt;STRUCTURE OF NODE&lt;/b&gt;" style="text;html=1;strokeColor=none;fillColor=none;align=center;verticalAlign=middle;whiteSpace=wrap;rounded=0;fontSize=25;" parent="1" vertex="1">
                    <mxGeometry x="-1990.0000000000002" y="51.84" width="459.09" height="12.5" as="geometry"/>
                </mxCell>
                <mxCell id="OooqWEhw0Vrew64uAaYq-304" value="" style="endArrow=none;dashed=1;html=1;dashPattern=1 3;strokeWidth=2;rounded=0;fontSize=12;" parent="1" edge="1">
                    <mxGeometry width="50" height="50" relative="1" as="geometry">
                        <mxPoint x="110" y="-33.5" as="sourcePoint"/>
                        <mxPoint x="110" y="928.5" as="targetPoint"/>
                    </mxGeometry>
                </mxCell>
                <mxCell id="OooqWEhw0Vrew64uAaYq-305" value="" style="endArrow=none;dashed=1;html=1;dashPattern=1 3;strokeWidth=2;rounded=0;fontSize=12;" parent="1" edge="1">
                    <mxGeometry width="50" height="50" relative="1" as="geometry">
                        <mxPoint y="-30" as="sourcePoint"/>
                        <mxPoint x="-3880" y="-20" as="targetPoint"/>
                    </mxGeometry>
                </mxCell>
                <mxCell id="OooqWEhw0Vrew64uAaYq-392" value="&lt;i&gt;LOCAL&lt;/i&gt;" style="rounded=1;whiteSpace=wrap;html=1;fontSize=25;fillColor=#d5e8d4;strokeColor=#82b366;" parent="1" vertex="1">
                    <mxGeometry x="463.29" y="137.5" width="220" height="195" as="geometry"/>
                </mxCell>
                <mxCell id="OooqWEhw0Vrew64uAaYq-393" value="FLOW1" style="rounded=1;whiteSpace=wrap;html=1;fontSize=25;fillColor=#d5e8d4;strokeColor=#82b366;" parent="1" vertex="1">
                    <mxGeometry x="1055.41" y="348.61" width="220" height="195" as="geometry"/>
                </mxCell>
                <mxCell id="OooqWEhw0Vrew64uAaYq-394" value="FLOW2" style="rounded=1;whiteSpace=wrap;html=1;fontSize=25;fillColor=#d5e8d4;strokeColor=#82b366;" parent="1" vertex="1">
                    <mxGeometry x="1337.51" y="348.61" width="220" height="195" as="geometry"/>
                </mxCell>
                <mxCell id="OooqWEhw0Vrew64uAaYq-395" value="FLOW3" style="rounded=1;whiteSpace=wrap;html=1;fontSize=25;fillColor=#d5e8d4;strokeColor=#82b366;" parent="1" vertex="1">
                    <mxGeometry x="1614.22" y="348.61" width="220" height="195" as="geometry"/>
                </mxCell>
                <mxCell id="OooqWEhw0Vrew64uAaYq-396" value="&lt;i&gt;GLOBAL&lt;/i&gt;" style="rounded=1;whiteSpace=wrap;html=1;fontSize=25;fillColor=#fff2cc;strokeColor=#d6b656;" parent="1" vertex="1">
                    <mxGeometry x="1337.51" y="136.11" width="220" height="195" as="geometry"/>
                </mxCell>
                <mxCell id="OooqWEhw0Vrew64uAaYq-397" value="" style="rounded=1;whiteSpace=wrap;html=1;fontSize=25;fillColor=none;" parent="1" vertex="1">
                    <mxGeometry x="1039.09" y="43.60999999999994" width="880" height="600" as="geometry"/>
                </mxCell>
                <mxCell id="OooqWEhw0Vrew64uAaYq-398" value="First, variables in these dicts are taken on the SCRIPT level from GLOBAL" style="rounded=0;whiteSpace=wrap;html=1;fontSize=18;fillColor=#fff2cc;strokeColor=#d6b656;" parent="1" vertex="1">
                    <mxGeometry x="2170" y="130.69" width="420" height="60" as="geometry"/>
                </mxCell>
                <mxCell id="OooqWEhw0Vrew64uAaYq-399" value="They can be overwritten on the FLOW level in LOCAL" style="rounded=0;whiteSpace=wrap;html=1;fontSize=18;fillColor=#d5e8d4;strokeColor=#82b366;" parent="1" vertex="1">
                    <mxGeometry x="2170" y="230.69" width="420" height="60" as="geometry"/>
                </mxCell>
                <mxCell id="OooqWEhw0Vrew64uAaYq-400" value="They, too, can be overwritten on the NODE level " style="rounded=0;whiteSpace=wrap;html=1;fontSize=18;fillColor=#dae8fc;strokeColor=#6c8ebf;" parent="1" vertex="1">
                    <mxGeometry x="2170" y="320.69" width="420" height="60" as="geometry"/>
                </mxCell>
                <mxCell id="OooqWEhw0Vrew64uAaYq-401" value="" style="endArrow=classic;html=1;rounded=0;fontSize=18;exitX=0.5;exitY=1;exitDx=0;exitDy=0;entryX=0.5;entryY=0;entryDx=0;entryDy=0;" parent="1" source="OooqWEhw0Vrew64uAaYq-398" target="OooqWEhw0Vrew64uAaYq-399" edge="1">
                    <mxGeometry width="50" height="50" relative="1" as="geometry">
                        <mxPoint x="2510" y="70.69" as="sourcePoint"/>
                        <mxPoint x="2560" y="20.689999999999998" as="targetPoint"/>
                    </mxGeometry>
                </mxCell>
                <mxCell id="OooqWEhw0Vrew64uAaYq-402" value="" style="endArrow=classic;html=1;rounded=0;fontSize=18;exitX=0.5;exitY=1;exitDx=0;exitDy=0;" parent="1" source="OooqWEhw0Vrew64uAaYq-399" target="OooqWEhw0Vrew64uAaYq-400" edge="1">
                    <mxGeometry width="50" height="50" relative="1" as="geometry">
                        <mxPoint x="2510" y="70.69" as="sourcePoint"/>
                        <mxPoint x="2560" y="20.689999999999998" as="targetPoint"/>
                    </mxGeometry>
                </mxCell>
                <mxCell id="OooqWEhw0Vrew64uAaYq-403" value="" style="endArrow=none;dashed=1;html=1;dashPattern=1 3;strokeWidth=2;rounded=0;fontSize=24;" parent="1" edge="1">
                    <mxGeometry width="50" height="50" relative="1" as="geometry">
                        <mxPoint x="2720" y="938" as="sourcePoint"/>
                        <mxPoint x="2710" y="-10" as="targetPoint"/>
                    </mxGeometry>
                </mxCell>
                <mxCell id="OooqWEhw0Vrew64uAaYq-409" value="&lt;font style=&quot;font-size: 18px;&quot;&gt;&lt;b&gt;HOW TRANSITIONS TO CHOOSE FROM ARE SELECTED&lt;/b&gt;&lt;/font&gt;" style="text;html=1;align=center;verticalAlign=middle;resizable=0;points=[];autosize=1;strokeColor=none;fillColor=none;fontSize=13;" parent="1" vertex="1">
                    <mxGeometry x="2750" y="21.84" width="590" height="20" as="geometry"/>
                </mxCell>
                <mxCell id="OooqWEhw0Vrew64uAaYq-412" value="If there are also no transitions, we take them from the SCRIPT level from GLOBAL" style="rounded=0;whiteSpace=wrap;html=1;fontSize=18;fillColor=#fff2cc;strokeColor=#d6b656;" parent="1" vertex="1">
                    <mxGeometry x="2793.32" y="213.61" width="420" height="60" as="geometry"/>
                </mxCell>
                <mxCell id="OooqWEhw0Vrew64uAaYq-413" value="If there are no transitions, we take them from the FLOW level from LOCAL" style="rounded=0;whiteSpace=wrap;html=1;fontSize=18;fillColor=#d5e8d4;strokeColor=#82b366;" parent="1" vertex="1">
                    <mxGeometry x="2790" y="313.61" width="420" height="60" as="geometry"/>
                </mxCell>
                <mxCell id="OooqWEhw0Vrew64uAaYq-414" value="First, we take transitions from the NODE level" style="rounded=0;whiteSpace=wrap;html=1;fontSize=18;fillColor=#dae8fc;strokeColor=#6c8ebf;" parent="1" vertex="1">
                    <mxGeometry x="2790" y="403.61" width="420" height="60" as="geometry"/>
                </mxCell>
                <mxCell id="OooqWEhw0Vrew64uAaYq-415" value="If there are still no transitions, we go to the FALLBACK node" style="rounded=0;whiteSpace=wrap;html=1;fontSize=18;fillColor=#f8cecc;strokeColor=#b85450;" parent="1" vertex="1">
                    <mxGeometry x="2795.13" y="118.61" width="416.81" height="60" as="geometry"/>
                </mxCell>
                <mxCell id="OooqWEhw0Vrew64uAaYq-416" value="" style="endArrow=classic;html=1;rounded=0;fontSize=18;exitX=0.5;exitY=0;exitDx=0;exitDy=0;entryX=0.5;entryY=1;entryDx=0;entryDy=0;" parent="1" source="OooqWEhw0Vrew64uAaYq-414" target="OooqWEhw0Vrew64uAaYq-413" edge="1">
                    <mxGeometry width="50" height="50" relative="1" as="geometry">
                        <mxPoint x="2890.13" y="363.61" as="sourcePoint"/>
                        <mxPoint x="2940.13" y="313.61" as="targetPoint"/>
                    </mxGeometry>
                </mxCell>
                <mxCell id="OooqWEhw0Vrew64uAaYq-417" value="" style="endArrow=classic;html=1;rounded=0;fontSize=18;" parent="1" edge="1">
                    <mxGeometry width="50" height="50" relative="1" as="geometry">
                        <mxPoint x="2996.13" y="313.61" as="sourcePoint"/>
                        <mxPoint x="2996.13" y="273.61" as="targetPoint"/>
                    </mxGeometry>
                </mxCell>
                <mxCell id="OooqWEhw0Vrew64uAaYq-418" value="" style="endArrow=classic;html=1;rounded=0;fontSize=18;exitX=0.5;exitY=0;exitDx=0;exitDy=0;entryX=0.5;entryY=1;entryDx=0;entryDy=0;" parent="1" source="OooqWEhw0Vrew64uAaYq-412" target="OooqWEhw0Vrew64uAaYq-415" edge="1">
                    <mxGeometry width="50" height="50" relative="1" as="geometry">
                        <mxPoint x="2890.13" y="363.61" as="sourcePoint"/>
                        <mxPoint x="2940.13" y="313.61" as="targetPoint"/>
                    </mxGeometry>
                </mxCell>
                <mxCell id="OooqWEhw0Vrew64uAaYq-529" value="&lt;font style=&quot;font-size: 18px;&quot;&gt;&lt;b&gt;HOW WE CHOOSE TRANSITION TO EXECUTE&lt;/b&gt;&lt;/font&gt;" style="text;html=1;align=center;verticalAlign=middle;resizable=0;points=[];autosize=1;strokeColor=none;fillColor=none;fontSize=13;" parent="1" vertex="1">
                    <mxGeometry x="3675" y="30" width="480" height="20" as="geometry"/>
                </mxCell>
                <mxCell id="OooqWEhw0Vrew64uAaYq-543" value="" style="endArrow=none;dashed=1;html=1;dashPattern=1 3;strokeWidth=2;rounded=0;fontSize=13;" parent="1" edge="1">
                    <mxGeometry width="50" height="50" relative="1" as="geometry">
                        <mxPoint x="4800" y="-21.84" as="sourcePoint"/>
                        <mxPoint x="4800" y="728.16" as="targetPoint"/>
                    </mxGeometry>
                </mxCell>
                <mxCell id="OooqWEhw0Vrew64uAaYq-548" value="&lt;div align=&quot;right&quot;&gt;&lt;font style=&quot;font-size: 18px;&quot;&gt;&lt;b&gt;HOW df_engine.labels works&lt;/b&gt;&lt;/font&gt;&lt;/div&gt;" style="text;whiteSpace=wrap;html=1;fontSize=13;align=right;" parent="1" vertex="1">
                    <mxGeometry x="4720" y="-5" width="550" height="50" as="geometry"/>
                </mxCell>
                <mxCell id="OooqWEhw0Vrew64uAaYq-568" value="" style="endArrow=none;dashed=1;html=1;dashPattern=1 3;strokeWidth=2;rounded=0;fontSize=18;" parent="1" edge="1">
                    <mxGeometry width="50" height="50" relative="1" as="geometry">
                        <mxPoint x="5440" y="-19.5" as="sourcePoint"/>
                        <mxPoint x="5440" y="699.5" as="targetPoint"/>
                    </mxGeometry>
                </mxCell>
                <mxCell id="OooqWEhw0Vrew64uAaYq-728" value="" style="endArrow=none;dashed=1;html=1;dashPattern=1 3;strokeWidth=2;rounded=0;fontSize=14;fontColor=#999900;" parent="1" edge="1">
                    <mxGeometry width="50" height="50" relative="1" as="geometry">
                        <mxPoint x="-2420" y="-20" as="sourcePoint"/>
                        <mxPoint x="-2420" y="904" as="targetPoint"/>
                    </mxGeometry>
                </mxCell>
                <mxCell id="OooqWEhw0Vrew64uAaYq-729" value="" style="endArrow=none;dashed=1;html=1;dashPattern=1 3;strokeWidth=2;rounded=0;fontSize=14;fontColor=#999900;" parent="1" edge="1">
                    <mxGeometry width="50" height="50" relative="1" as="geometry">
                        <mxPoint x="3370" y="-22.62" as="sourcePoint"/>
                        <mxPoint x="3370" y="853.38" as="targetPoint"/>
                    </mxGeometry>
                </mxCell>
                <mxCell id="OooqWEhw0Vrew64uAaYq-730" value="" style="endArrow=none;dashed=1;html=1;dashPattern=1 3;strokeWidth=2;rounded=0;fontSize=14;fontColor=#999900;" parent="1" edge="1">
                    <mxGeometry width="50" height="50" relative="1" as="geometry">
                        <mxPoint x="-1200" y="-40" as="sourcePoint"/>
                        <mxPoint x="-1190" y="1071" as="targetPoint"/>
                    </mxGeometry>
                </mxCell>
                <mxCell id="rgWhBiXqlmTNgqhzaKGn-164" value="&lt;div&gt;&lt;b&gt;LEGEND&lt;/b&gt;&lt;/div&gt;&lt;div&gt;&lt;b&gt;&amp;nbsp;&amp;nbsp; &lt;br&gt;&lt;/b&gt;&lt;/div&gt;" style="text;html=1;strokeColor=none;fillColor=none;align=center;verticalAlign=middle;whiteSpace=wrap;rounded=0;fontSize=25;" vertex="1" parent="1">
                    <mxGeometry x="-4010" y="21.839999999999975" width="40" height="20" as="geometry"/>
                </mxCell>
                <mxCell id="rgWhBiXqlmTNgqhzaKGn-165" value="&lt;font style=&quot;font-size: 14px;&quot;&gt;&lt;b&gt;&lt;font style=&quot;font-size: 14px;&quot;&gt;Dictionary with one key&lt;/font&gt;&lt;/b&gt;&lt;/font&gt;" style="text;html=1;strokeColor=none;fillColor=none;align=center;verticalAlign=middle;whiteSpace=wrap;rounded=0;fontSize=25;" vertex="1" parent="1">
                    <mxGeometry x="-4250" y="171.83999999999997" width="230" height="20" as="geometry"/>
                </mxCell>
                <mxCell id="rgWhBiXqlmTNgqhzaKGn-166" value="&lt;font style=&quot;font-size: 14px;&quot;&gt;&lt;b&gt;&lt;font style=&quot;font-size: 14px;&quot;&gt;Dictionary with many keys&lt;/font&gt;&lt;/b&gt;&lt;/font&gt;" style="text;html=1;strokeColor=none;fillColor=none;align=center;verticalAlign=middle;whiteSpace=wrap;rounded=0;fontSize=25;" vertex="1" parent="1">
                    <mxGeometry x="-3976.99" y="51.839999999999975" width="428.18" height="260" as="geometry"/>
                </mxCell>
                <mxCell id="rgWhBiXqlmTNgqhzaKGn-167" value="" style="rounded=1;whiteSpace=wrap;html=1;fillColor=none;" vertex="1" parent="1">
                    <mxGeometry x="-3930" y="201.83999999999997" width="355" height="200" as="geometry"/>
                </mxCell>
                <mxCell id="rgWhBiXqlmTNgqhzaKGn-168" value="" style="rounded=1;whiteSpace=wrap;html=1;fillColor=none;" vertex="1" parent="1">
                    <mxGeometry x="-4300" y="201.8400000000001" width="340" height="200" as="geometry"/>
                </mxCell>
                <mxCell id="rgWhBiXqlmTNgqhzaKGn-169" value="&lt;font style=&quot;font-size: 15px;&quot;&gt;Every KEYWORD (italicised)&lt;br&gt;&lt;/font&gt;" style="text;html=1;strokeColor=none;fillColor=none;align=center;verticalAlign=middle;whiteSpace=wrap;rounded=0;fontSize=11;fontStyle=2" vertex="1" parent="1">
                    <mxGeometry x="-4160" y="61.84" width="230" height="49.33" as="geometry"/>
                </mxCell>
                <mxCell id="rgWhBiXqlmTNgqhzaKGn-170" value="is taken from df_engine.core.keywords.py" style="text;html=1;strokeColor=none;fillColor=none;align=center;verticalAlign=middle;whiteSpace=wrap;rounded=0;fontSize=15;" vertex="1" parent="1">
                    <mxGeometry x="-3933.0099999999998" y="72.1699999999999" width="350" height="30" as="geometry"/>
                </mxCell>
                <mxCell id="rgWhBiXqlmTNgqhzaKGn-171" value="" style="rounded=1;whiteSpace=wrap;html=1;fontSize=14;fillColor=none;" vertex="1" parent="1">
                    <mxGeometry x="-4230" y="246.83999999999997" width="150" height="105" as="geometry"/>
                </mxCell>
                <mxCell id="rgWhBiXqlmTNgqhzaKGn-172" value="" style="endArrow=none;html=1;rounded=0;fontSize=14;entryX=0;entryY=0.5;entryDx=0;entryDy=0;exitX=1;exitY=0.5;exitDx=0;exitDy=0;" edge="1" parent="1" source="rgWhBiXqlmTNgqhzaKGn-171" target="rgWhBiXqlmTNgqhzaKGn-171">
                    <mxGeometry width="50" height="50" relative="1" as="geometry">
                        <mxPoint x="-3790" y="421.84" as="sourcePoint"/>
                        <mxPoint x="-3740" y="371.84" as="targetPoint"/>
                    </mxGeometry>
                </mxCell>
                <mxCell id="rgWhBiXqlmTNgqhzaKGn-173" value="Key" style="text;html=1;strokeColor=none;fillColor=none;align=center;verticalAlign=middle;whiteSpace=wrap;rounded=0;fontSize=14;" vertex="1" parent="1">
                    <mxGeometry x="-4180" y="261.84" width="60" height="30" as="geometry"/>
                </mxCell>
                <mxCell id="rgWhBiXqlmTNgqhzaKGn-174" value="Value" style="text;html=1;strokeColor=none;fillColor=none;align=center;verticalAlign=middle;whiteSpace=wrap;rounded=0;fontSize=14;" vertex="1" parent="1">
                    <mxGeometry x="-4185" y="309.05" width="60" height="30" as="geometry"/>
                </mxCell>
                <mxCell id="rgWhBiXqlmTNgqhzaKGn-175" value="" style="rounded=1;whiteSpace=wrap;html=1;fontSize=14;fillColor=none;" vertex="1" parent="1">
                    <mxGeometry x="-3920" y="236.83999999999997" width="150" height="105" as="geometry"/>
                </mxCell>
                <mxCell id="rgWhBiXqlmTNgqhzaKGn-176" value="" style="endArrow=none;html=1;rounded=0;fontSize=14;entryX=0;entryY=0.5;entryDx=0;entryDy=0;exitX=1;exitY=0.5;exitDx=0;exitDy=0;" edge="1" parent="1" source="rgWhBiXqlmTNgqhzaKGn-175" target="rgWhBiXqlmTNgqhzaKGn-175">
                    <mxGeometry width="50" height="50" relative="1" as="geometry">
                        <mxPoint x="-3480" y="411.84" as="sourcePoint"/>
                        <mxPoint x="-3430" y="361.84" as="targetPoint"/>
                    </mxGeometry>
                </mxCell>
                <mxCell id="rgWhBiXqlmTNgqhzaKGn-177" value="Key1" style="text;html=1;strokeColor=none;fillColor=none;align=center;verticalAlign=middle;whiteSpace=wrap;rounded=0;fontSize=14;" vertex="1" parent="1">
                    <mxGeometry x="-3870" y="251.83999999999997" width="60" height="30" as="geometry"/>
                </mxCell>
                <mxCell id="rgWhBiXqlmTNgqhzaKGn-178" value="Value1" style="text;html=1;strokeColor=none;fillColor=none;align=center;verticalAlign=middle;whiteSpace=wrap;rounded=0;fontSize=14;" vertex="1" parent="1">
                    <mxGeometry x="-3875" y="299.05" width="60" height="30" as="geometry"/>
                </mxCell>
                <mxCell id="rgWhBiXqlmTNgqhzaKGn-179" value="" style="rounded=1;whiteSpace=wrap;html=1;fontSize=14;fillColor=none;" vertex="1" parent="1">
                    <mxGeometry x="-3740" y="236.83999999999997" width="150" height="105" as="geometry"/>
                </mxCell>
                <mxCell id="rgWhBiXqlmTNgqhzaKGn-180" value="" style="endArrow=none;html=1;rounded=0;fontSize=14;entryX=0;entryY=0.5;entryDx=0;entryDy=0;exitX=1;exitY=0.5;exitDx=0;exitDy=0;" edge="1" parent="1" source="rgWhBiXqlmTNgqhzaKGn-179" target="rgWhBiXqlmTNgqhzaKGn-179">
                    <mxGeometry width="50" height="50" relative="1" as="geometry">
                        <mxPoint x="-3300" y="411.84" as="sourcePoint"/>
                        <mxPoint x="-3250" y="361.84" as="targetPoint"/>
                        <Array as="points">
                            <mxPoint x="-3660" y="289.84"/>
                        </Array>
                    </mxGeometry>
                </mxCell>
                <mxCell id="rgWhBiXqlmTNgqhzaKGn-181" value="Key2" style="text;html=1;strokeColor=none;fillColor=none;align=center;verticalAlign=middle;whiteSpace=wrap;rounded=0;fontSize=14;" vertex="1" parent="1">
                    <mxGeometry x="-3690" y="251.83999999999997" width="60" height="30" as="geometry"/>
                </mxCell>
                <mxCell id="rgWhBiXqlmTNgqhzaKGn-182" value="Value2" style="text;html=1;strokeColor=none;fillColor=none;align=center;verticalAlign=middle;whiteSpace=wrap;rounded=0;fontSize=14;" vertex="1" parent="1">
                    <mxGeometry x="-3695" y="299.05" width="60" height="30" as="geometry"/>
                </mxCell>
                <mxCell id="rgWhBiXqlmTNgqhzaKGn-183" value="&lt;div style=&quot;font-size: 12px;&quot;&gt;&lt;b style=&quot;font-size: 12px;&quot;&gt;&lt;font style=&quot;font-size: 12px;&quot;&gt;Dictionary with one keyword as key and dict as value&lt;br style=&quot;font-size: 12px;&quot;&gt;&lt;/font&gt;&lt;/b&gt;&lt;/div&gt;" style="text;whiteSpace=wrap;html=1;fontSize=12;align=center;" vertex="1" parent="1">
                    <mxGeometry x="-3920" y="481.84" width="387.49" height="50" as="geometry"/>
                </mxCell>
                <mxCell id="rgWhBiXqlmTNgqhzaKGn-184" value="" style="rounded=1;whiteSpace=wrap;html=1;fontSize=14;fillColor=none;" vertex="1" parent="1">
                    <mxGeometry x="-3855" y="545.6599999999999" width="170" height="152.72" as="geometry"/>
                </mxCell>
                <mxCell id="rgWhBiXqlmTNgqhzaKGn-185" value="&lt;i&gt;KEYWORD&lt;/i&gt;" style="text;html=1;strokeColor=none;fillColor=none;align=center;verticalAlign=middle;whiteSpace=wrap;rounded=0;fontSize=14;" vertex="1" parent="1">
                    <mxGeometry x="-3804.48" y="555.6599999999999" width="60" height="35" as="geometry"/>
                </mxCell>
                <mxCell id="rgWhBiXqlmTNgqhzaKGn-186" value="" style="rounded=1;whiteSpace=wrap;html=1;fillColor=none;" vertex="1" parent="1">
                    <mxGeometry x="-3933.01" y="526.8399999999999" width="355" height="200" as="geometry"/>
                </mxCell>
                <mxCell id="rgWhBiXqlmTNgqhzaKGn-187" value="" style="endArrow=none;html=1;rounded=0;fontSize=14;exitX=0;exitY=0.5;exitDx=0;exitDy=0;entryX=1;entryY=0.5;entryDx=0;entryDy=0;" edge="1" parent="1" source="rgWhBiXqlmTNgqhzaKGn-184" target="rgWhBiXqlmTNgqhzaKGn-184">
                    <mxGeometry width="50" height="50" relative="1" as="geometry">
                        <mxPoint x="-4105" y="558.3799999999999" as="sourcePoint"/>
                        <mxPoint x="-4055" y="508.37999999999994" as="targetPoint"/>
                    </mxGeometry>
                </mxCell>
                <mxCell id="rgWhBiXqlmTNgqhzaKGn-188" value="" style="rounded=1;whiteSpace=wrap;html=1;fontSize=14;fillColor=none;" vertex="1" parent="1">
                    <mxGeometry x="-3848.43" y="625.5899999999999" width="73.43" height="60" as="geometry"/>
                </mxCell>
                <mxCell id="rgWhBiXqlmTNgqhzaKGn-189" value="" style="endArrow=none;html=1;rounded=0;fontSize=14;exitX=0;exitY=0.5;exitDx=0;exitDy=0;entryX=1;entryY=0.5;entryDx=0;entryDy=0;" edge="1" parent="1" source="rgWhBiXqlmTNgqhzaKGn-188" target="rgWhBiXqlmTNgqhzaKGn-188">
                    <mxGeometry width="50" height="50" relative="1" as="geometry">
                        <mxPoint x="-4105" y="558.3799999999999" as="sourcePoint"/>
                        <mxPoint x="-4055" y="508.37999999999994" as="targetPoint"/>
                    </mxGeometry>
                </mxCell>
                <mxCell id="rgWhBiXqlmTNgqhzaKGn-190" value="" style="rounded=1;whiteSpace=wrap;html=1;fontSize=14;fillColor=none;" vertex="1" parent="1">
                    <mxGeometry x="-3761.31" y="625.5899999999999" width="70" height="58.53" as="geometry"/>
                </mxCell>
                <mxCell id="rgWhBiXqlmTNgqhzaKGn-191" value="" style="endArrow=none;html=1;rounded=0;fontSize=14;entryX=1;entryY=0.5;entryDx=0;entryDy=0;exitX=0;exitY=0.5;exitDx=0;exitDy=0;" edge="1" parent="1" source="rgWhBiXqlmTNgqhzaKGn-190" target="rgWhBiXqlmTNgqhzaKGn-190">
                    <mxGeometry width="50" height="50" relative="1" as="geometry">
                        <mxPoint x="-4105" y="558.3799999999999" as="sourcePoint"/>
                        <mxPoint x="-4055" y="508.37999999999994" as="targetPoint"/>
                    </mxGeometry>
                </mxCell>
                <mxCell id="rgWhBiXqlmTNgqhzaKGn-192" value="Subkey1" style="text;html=1;strokeColor=none;fillColor=none;align=center;verticalAlign=middle;whiteSpace=wrap;rounded=0;fontSize=14;" vertex="1" parent="1">
                    <mxGeometry x="-3841.71" y="628.3799999999999" width="60" height="30" as="geometry"/>
                </mxCell>
                <mxCell id="rgWhBiXqlmTNgqhzaKGn-193" value="Subkey2" style="text;html=1;strokeColor=none;fillColor=none;align=center;verticalAlign=middle;whiteSpace=wrap;rounded=0;fontSize=14;" vertex="1" parent="1">
                    <mxGeometry x="-3756.31" y="625.8799999999999" width="60" height="30" as="geometry"/>
                </mxCell>
                <mxCell id="rgWhBiXqlmTNgqhzaKGn-194" value="&lt;font style=&quot;font-size: 12px;&quot;&gt;Subvalue1&lt;/font&gt;" style="text;html=1;strokeColor=none;fillColor=none;align=center;verticalAlign=middle;whiteSpace=wrap;rounded=0;fontSize=14;" vertex="1" parent="1">
                    <mxGeometry x="-3841.71" y="658.3799999999999" width="60" height="30" as="geometry"/>
                </mxCell>
                <mxCell id="rgWhBiXqlmTNgqhzaKGn-195" value="&lt;font style=&quot;font-size: 12px;&quot;&gt;Subvalue2&lt;/font&gt;" style="text;html=1;strokeColor=none;fillColor=none;align=center;verticalAlign=middle;whiteSpace=wrap;rounded=0;fontSize=14;" vertex="1" parent="1">
                    <mxGeometry x="-3756.31" y="655.5899999999999" width="60" height="30" as="geometry"/>
                </mxCell>
                <mxCell id="rgWhBiXqlmTNgqhzaKGn-244" value="" style="rounded=1;whiteSpace=wrap;html=1;fontSize=14;fillColor=none;strokeColor=#000000;" vertex="1" parent="1">
                    <mxGeometry x="-3310" y="561.7700000000001" width="290" height="300" as="geometry"/>
                </mxCell>
                <mxCell id="rgWhBiXqlmTNgqhzaKGn-245" value="&lt;i&gt;PRE_RESPONSE_PROCESSING&lt;/i&gt;" style="text;html=1;strokeColor=none;fillColor=none;align=center;verticalAlign=middle;whiteSpace=wrap;rounded=0;fontSize=14;" vertex="1" parent="1">
                    <mxGeometry x="-3200" y="560.4500000000002" width="40" height="50" as="geometry"/>
                </mxCell>
                <mxCell id="rgWhBiXqlmTNgqhzaKGn-246" value="" style="endArrow=none;html=1;rounded=0;fontSize=12;exitX=0;exitY=0.25;exitDx=0;exitDy=0;entryX=1;entryY=0.25;entryDx=0;entryDy=0;" edge="1" parent="1" source="rgWhBiXqlmTNgqhzaKGn-244" target="rgWhBiXqlmTNgqhzaKGn-244">
                    <mxGeometry width="50" height="50" relative="1" as="geometry">
                        <mxPoint x="-3120" y="581.7700000000001" as="sourcePoint"/>
                        <mxPoint x="-3070" y="531.7700000000001" as="targetPoint"/>
                    </mxGeometry>
                </mxCell>
                <mxCell id="rgWhBiXqlmTNgqhzaKGn-247" value="" style="rounded=1;whiteSpace=wrap;html=1;fontSize=14;fillColor=none;" vertex="1" parent="1">
                    <mxGeometry x="-3300" y="651.7700000000001" width="130" height="105" as="geometry"/>
                </mxCell>
                <mxCell id="rgWhBiXqlmTNgqhzaKGn-248" value="" style="endArrow=none;html=1;rounded=0;fontSize=14;entryX=0;entryY=0.5;entryDx=0;entryDy=0;exitX=1;exitY=0.5;exitDx=0;exitDy=0;" edge="1" parent="1" source="rgWhBiXqlmTNgqhzaKGn-247" target="rgWhBiXqlmTNgqhzaKGn-247">
                    <mxGeometry width="50" height="50" relative="1" as="geometry">
                        <mxPoint x="-3200" y="701.7700000000001" as="sourcePoint"/>
                        <mxPoint x="-2810" y="776.7700000000001" as="targetPoint"/>
                    </mxGeometry>
                </mxCell>
                <mxCell id="rgWhBiXqlmTNgqhzaKGn-249" value="&lt;font style=&quot;font-size: 12px;&quot;&gt;Processing_name_1&lt;/font&gt;" style="text;html=1;strokeColor=none;fillColor=none;align=center;verticalAlign=middle;whiteSpace=wrap;rounded=0;fontSize=14;" vertex="1" parent="1">
                    <mxGeometry x="-3270" y="661.7700000000001" width="70" height="33.81" as="geometry"/>
                </mxCell>
                <mxCell id="rgWhBiXqlmTNgqhzaKGn-250" value="Processing_1" style="text;html=1;strokeColor=none;fillColor=none;align=center;verticalAlign=middle;whiteSpace=wrap;rounded=0;fontSize=14;" vertex="1" parent="1">
                    <mxGeometry x="-3270" y="713.9800000000001" width="60" height="30" as="geometry"/>
                </mxCell>
                <mxCell id="rgWhBiXqlmTNgqhzaKGn-251" value="" style="rounded=1;whiteSpace=wrap;html=1;fontSize=14;fillColor=none;" vertex="1" parent="1">
                    <mxGeometry x="-3160" y="651.7700000000001" width="130" height="105" as="geometry"/>
                </mxCell>
                <mxCell id="rgWhBiXqlmTNgqhzaKGn-252" value="" style="endArrow=none;html=1;rounded=0;fontSize=14;entryX=0;entryY=0.5;entryDx=0;entryDy=0;exitX=1;exitY=0.5;exitDx=0;exitDy=0;" edge="1" parent="1" source="rgWhBiXqlmTNgqhzaKGn-251" target="rgWhBiXqlmTNgqhzaKGn-251">
                    <mxGeometry width="50" height="50" relative="1" as="geometry">
                        <mxPoint x="-3060" y="701.7700000000001" as="sourcePoint"/>
                        <mxPoint x="-2670" y="776.7700000000001" as="targetPoint"/>
                    </mxGeometry>
                </mxCell>
                <mxCell id="rgWhBiXqlmTNgqhzaKGn-253" value="&lt;font style=&quot;font-size: 12px;&quot;&gt;Processing_name_2&lt;/font&gt;" style="text;html=1;strokeColor=none;fillColor=none;align=center;verticalAlign=middle;whiteSpace=wrap;rounded=0;fontSize=14;" vertex="1" parent="1">
                    <mxGeometry x="-3130" y="661.7700000000001" width="70" height="33.81" as="geometry"/>
                </mxCell>
                <mxCell id="rgWhBiXqlmTNgqhzaKGn-254" value="Processing_2" style="text;html=1;strokeColor=none;fillColor=none;align=center;verticalAlign=middle;whiteSpace=wrap;rounded=0;fontSize=14;" vertex="1" parent="1">
                    <mxGeometry x="-3130" y="713.9800000000001" width="60" height="30" as="geometry"/>
                </mxCell>
                <mxCell id="rgWhBiXqlmTNgqhzaKGn-255" value="" style="rounded=1;whiteSpace=wrap;html=1;fontSize=24;fillColor=none;" vertex="1" parent="1">
                    <mxGeometry x="-3360" y="111.84000000000003" width="830" height="850" as="geometry"/>
                </mxCell>
                <mxCell id="rgWhBiXqlmTNgqhzaKGn-256" value="" style="endArrow=none;html=1;rounded=0;fontSize=24;strokeWidth=3;exitX=0.999;exitY=0.118;exitDx=0;exitDy=0;exitPerimeter=0;entryX=0.004;entryY=0.113;entryDx=0;entryDy=0;entryPerimeter=0;" edge="1" parent="1" source="rgWhBiXqlmTNgqhzaKGn-255" target="rgWhBiXqlmTNgqhzaKGn-255">
                    <mxGeometry width="50" height="50" relative="1" as="geometry">
                        <mxPoint x="-2840" y="276.84000000000003" as="sourcePoint"/>
                        <mxPoint x="-2790" y="226.84000000000003" as="targetPoint"/>
                    </mxGeometry>
                </mxCell>
                <mxCell id="rgWhBiXqlmTNgqhzaKGn-257" value="&lt;i&gt;LOCAL / GLOBAL&lt;/i&gt;" style="text;html=1;strokeColor=none;fillColor=none;align=center;verticalAlign=middle;whiteSpace=wrap;rounded=0;fontSize=24;" vertex="1" parent="1">
                    <mxGeometry x="-3095.52" y="126.84000000000003" width="310" height="30" as="geometry"/>
                </mxCell>
                <mxCell id="rgWhBiXqlmTNgqhzaKGn-258" value="" style="rounded=1;whiteSpace=wrap;html=1;fontSize=14;fillColor=none;strokeColor=#000000;" vertex="1" parent="1">
                    <mxGeometry x="-3310" y="226.84000000000003" width="290" height="300" as="geometry"/>
                </mxCell>
                <mxCell id="rgWhBiXqlmTNgqhzaKGn-259" value="&lt;i&gt;MISC&lt;/i&gt;" style="text;html=1;strokeColor=none;fillColor=none;align=center;verticalAlign=middle;whiteSpace=wrap;rounded=0;fontSize=14;" vertex="1" parent="1">
                    <mxGeometry x="-3185" y="235.45000000000016" width="40" height="50" as="geometry"/>
                </mxCell>
                <mxCell id="rgWhBiXqlmTNgqhzaKGn-260" value="" style="endArrow=none;html=1;rounded=0;fontSize=12;exitX=0;exitY=0.25;exitDx=0;exitDy=0;entryX=1;entryY=0.25;entryDx=0;entryDy=0;" edge="1" parent="1" source="rgWhBiXqlmTNgqhzaKGn-258" target="rgWhBiXqlmTNgqhzaKGn-258">
                    <mxGeometry width="50" height="50" relative="1" as="geometry">
                        <mxPoint x="-3105" y="256.7700000000001" as="sourcePoint"/>
                        <mxPoint x="-3055" y="206.7700000000001" as="targetPoint"/>
                    </mxGeometry>
                </mxCell>
                <mxCell id="rgWhBiXqlmTNgqhzaKGn-261" value="" style="rounded=1;whiteSpace=wrap;html=1;fontSize=14;fillColor=none;" vertex="1" parent="1">
                    <mxGeometry x="-3285" y="326.7700000000001" width="130" height="105" as="geometry"/>
                </mxCell>
                <mxCell id="rgWhBiXqlmTNgqhzaKGn-262" value="" style="endArrow=none;html=1;rounded=0;fontSize=14;entryX=0;entryY=0.5;entryDx=0;entryDy=0;exitX=1;exitY=0.5;exitDx=0;exitDy=0;" edge="1" parent="1" source="rgWhBiXqlmTNgqhzaKGn-261" target="rgWhBiXqlmTNgqhzaKGn-261">
                    <mxGeometry width="50" height="50" relative="1" as="geometry">
                        <mxPoint x="-3185" y="376.7700000000001" as="sourcePoint"/>
                        <mxPoint x="-2795" y="451.7700000000001" as="targetPoint"/>
                    </mxGeometry>
                </mxCell>
                <mxCell id="rgWhBiXqlmTNgqhzaKGn-263" value="Misc_key_1" style="text;html=1;strokeColor=none;fillColor=none;align=center;verticalAlign=middle;whiteSpace=wrap;rounded=0;fontSize=14;" vertex="1" parent="1">
                    <mxGeometry x="-3255" y="336.7700000000001" width="70" height="33.81" as="geometry"/>
                </mxCell>
                <mxCell id="rgWhBiXqlmTNgqhzaKGn-264" value="Value_1" style="text;html=1;strokeColor=none;fillColor=none;align=center;verticalAlign=middle;whiteSpace=wrap;rounded=0;fontSize=14;" vertex="1" parent="1">
                    <mxGeometry x="-3255" y="388.98000000000013" width="60" height="30" as="geometry"/>
                </mxCell>
                <mxCell id="rgWhBiXqlmTNgqhzaKGn-265" value="" style="rounded=1;whiteSpace=wrap;html=1;fontSize=14;fillColor=none;" vertex="1" parent="1">
                    <mxGeometry x="-3145" y="326.7700000000001" width="130" height="105" as="geometry"/>
                </mxCell>
                <mxCell id="rgWhBiXqlmTNgqhzaKGn-266" value="" style="endArrow=none;html=1;rounded=0;fontSize=14;entryX=0;entryY=0.5;entryDx=0;entryDy=0;exitX=1;exitY=0.5;exitDx=0;exitDy=0;" edge="1" parent="1" source="rgWhBiXqlmTNgqhzaKGn-265" target="rgWhBiXqlmTNgqhzaKGn-265">
                    <mxGeometry width="50" height="50" relative="1" as="geometry">
                        <mxPoint x="-3045" y="376.7700000000001" as="sourcePoint"/>
                        <mxPoint x="-2655" y="451.7700000000001" as="targetPoint"/>
                    </mxGeometry>
                </mxCell>
                <mxCell id="rgWhBiXqlmTNgqhzaKGn-267" value="Misc_key_2" style="text;html=1;strokeColor=none;fillColor=none;align=center;verticalAlign=middle;whiteSpace=wrap;rounded=0;fontSize=14;" vertex="1" parent="1">
                    <mxGeometry x="-3115" y="336.7700000000001" width="70" height="33.81" as="geometry"/>
                </mxCell>
                <mxCell id="rgWhBiXqlmTNgqhzaKGn-268" value="Value_2" style="text;html=1;strokeColor=none;fillColor=none;align=center;verticalAlign=middle;whiteSpace=wrap;rounded=0;fontSize=14;" vertex="1" parent="1">
                    <mxGeometry x="-3115" y="388.98000000000013" width="60" height="30" as="geometry"/>
                </mxCell>
                <mxCell id="rgWhBiXqlmTNgqhzaKGn-269" value="" style="rounded=1;whiteSpace=wrap;html=1;fontSize=14;" vertex="1" parent="1">
                    <mxGeometry x="-2910.52" y="231.84000000000003" width="330" height="295" as="geometry"/>
                </mxCell>
                <mxCell id="rgWhBiXqlmTNgqhzaKGn-270" value="&lt;i&gt;TRANSITIONS&lt;/i&gt;" style="text;html=1;strokeColor=none;fillColor=none;align=center;verticalAlign=middle;whiteSpace=wrap;rounded=0;fontSize=14;" vertex="1" parent="1">
                    <mxGeometry x="-2805" y="216.84000000000003" width="90" height="61.32" as="geometry"/>
                </mxCell>
                <mxCell id="rgWhBiXqlmTNgqhzaKGn-271" value="" style="endArrow=none;html=1;rounded=0;fontSize=12;exitX=0;exitY=0.25;exitDx=0;exitDy=0;entryX=1;entryY=0.25;entryDx=0;entryDy=0;" edge="1" parent="1" source="rgWhBiXqlmTNgqhzaKGn-269" target="rgWhBiXqlmTNgqhzaKGn-269">
                    <mxGeometry width="50" height="50" relative="1" as="geometry">
                        <mxPoint x="-2725" y="249.48000000000013" as="sourcePoint"/>
                        <mxPoint x="-2675" y="199.48000000000013" as="targetPoint"/>
                    </mxGeometry>
                </mxCell>
                <mxCell id="rgWhBiXqlmTNgqhzaKGn-272" value="" style="rounded=1;whiteSpace=wrap;html=1;fontSize=14;fillColor=none;" vertex="1" parent="1">
                    <mxGeometry x="-2742.4900000000002" y="319.34000000000003" width="144.48" height="106.38" as="geometry"/>
                </mxCell>
                <mxCell id="rgWhBiXqlmTNgqhzaKGn-273" value="" style="endArrow=none;html=1;rounded=0;fontSize=14;entryX=0;entryY=0.5;entryDx=0;entryDy=0;exitX=1;exitY=0.5;exitDx=0;exitDy=0;" edge="1" parent="1" source="rgWhBiXqlmTNgqhzaKGn-272" target="rgWhBiXqlmTNgqhzaKGn-272">
                    <mxGeometry width="50" height="50" relative="1" as="geometry">
                        <mxPoint x="-2642.4900000000002" y="369.34000000000003" as="sourcePoint"/>
                        <mxPoint x="-2252.4900000000002" y="444.34000000000003" as="targetPoint"/>
                    </mxGeometry>
                </mxCell>
                <mxCell id="rgWhBiXqlmTNgqhzaKGn-274" value="&lt;div style=&quot;font-size: 13px;&quot;&gt;&lt;font style=&quot;font-size: 13px;&quot;&gt;Condition or&lt;br&gt;&lt;/font&gt;&lt;/div&gt;&lt;div style=&quot;font-size: 13px;&quot;&gt;&lt;font style=&quot;font-size: 13px;&quot;&gt;&amp;nbsp;condition function&lt;br&gt;&lt;/font&gt;&lt;/div&gt;" style="text;html=1;strokeColor=none;fillColor=none;align=center;verticalAlign=middle;whiteSpace=wrap;rounded=0;fontSize=14;" vertex="1" parent="1">
                    <mxGeometry x="-2745" y="379.05000000000007" width="160" height="40" as="geometry"/>
                </mxCell>
                <mxCell id="rgWhBiXqlmTNgqhzaKGn-275" value="&lt;div&gt;(FLOW, NODE)&lt;/div&gt;&lt;div&gt;or function from df_engine.labels&lt;br&gt;&lt;/div&gt;" style="text;html=1;strokeColor=none;fillColor=none;align=center;verticalAlign=middle;whiteSpace=wrap;rounded=0;fontSize=14;" vertex="1" parent="1">
                    <mxGeometry x="-2738.0099999999998" y="330.45000000000016" width="140" height="33.81" as="geometry"/>
                </mxCell>
                <mxCell id="rgWhBiXqlmTNgqhzaKGn-276" value="" style="rounded=1;whiteSpace=wrap;html=1;fontSize=14;fillColor=none;" vertex="1" parent="1">
                    <mxGeometry x="-2902.4900000000002" y="317.80000000000007" width="144.48" height="106.38" as="geometry"/>
                </mxCell>
                <mxCell id="rgWhBiXqlmTNgqhzaKGn-277" value="" style="endArrow=none;html=1;rounded=0;fontSize=14;entryX=0;entryY=0.5;entryDx=0;entryDy=0;exitX=1;exitY=0.5;exitDx=0;exitDy=0;" edge="1" parent="1" source="rgWhBiXqlmTNgqhzaKGn-276" target="rgWhBiXqlmTNgqhzaKGn-276">
                    <mxGeometry width="50" height="50" relative="1" as="geometry">
                        <mxPoint x="-2802.4900000000002" y="367.80000000000007" as="sourcePoint"/>
                        <mxPoint x="-2412.4900000000002" y="442.80000000000007" as="targetPoint"/>
                    </mxGeometry>
                </mxCell>
                <mxCell id="rgWhBiXqlmTNgqhzaKGn-278" value="&lt;div style=&quot;font-size: 13px;&quot;&gt;&lt;font style=&quot;font-size: 13px;&quot;&gt;Condition or&lt;br&gt;&lt;/font&gt;&lt;/div&gt;&lt;div style=&quot;font-size: 13px;&quot;&gt;&lt;font style=&quot;font-size: 13px;&quot;&gt;&amp;nbsp;condition function&lt;br&gt;&lt;/font&gt;&lt;/div&gt;" style="text;html=1;strokeColor=none;fillColor=none;align=center;verticalAlign=middle;whiteSpace=wrap;rounded=0;fontSize=14;" vertex="1" parent="1">
                    <mxGeometry x="-2905" y="377.5100000000001" width="160" height="40" as="geometry"/>
                </mxCell>
                <mxCell id="rgWhBiXqlmTNgqhzaKGn-279" value="&lt;div&gt;(FLOW, NODE)&lt;/div&gt;&lt;div&gt;or function from df_engine.labels&lt;br&gt;&lt;/div&gt;" style="text;html=1;strokeColor=none;fillColor=none;align=center;verticalAlign=middle;whiteSpace=wrap;rounded=0;fontSize=14;" vertex="1" parent="1">
                    <mxGeometry x="-2898.0099999999998" y="328.9100000000002" width="140" height="33.81" as="geometry"/>
                </mxCell>
                <mxCell id="rgWhBiXqlmTNgqhzaKGn-280" value="" style="rounded=1;whiteSpace=wrap;html=1;fontSize=14;" vertex="1" parent="1">
                    <mxGeometry x="-2910.52" y="558.3800000000002" width="330" height="295" as="geometry"/>
                </mxCell>
                <mxCell id="rgWhBiXqlmTNgqhzaKGn-281" value="&lt;i&gt;PRE_TRANSITION_PROCESSING&lt;/i&gt;" style="text;html=1;strokeColor=none;fillColor=none;align=center;verticalAlign=middle;whiteSpace=wrap;rounded=0;fontSize=14;" vertex="1" parent="1">
                    <mxGeometry x="-2790.52" y="562.7300000000001" width="40" height="50" as="geometry"/>
                </mxCell>
                <mxCell id="rgWhBiXqlmTNgqhzaKGn-282" value="" style="endArrow=none;html=1;rounded=0;fontSize=12;exitX=0;exitY=0.25;exitDx=0;exitDy=0;entryX=1;entryY=0.25;entryDx=0;entryDy=0;" edge="1" parent="1" source="rgWhBiXqlmTNgqhzaKGn-280" target="rgWhBiXqlmTNgqhzaKGn-280">
                    <mxGeometry width="50" height="50" relative="1" as="geometry">
                        <mxPoint x="-2710.52" y="584.0500000000003" as="sourcePoint"/>
                        <mxPoint x="-2660.52" y="534.0500000000001" as="targetPoint"/>
                    </mxGeometry>
                </mxCell>
                <mxCell id="rgWhBiXqlmTNgqhzaKGn-283" value="" style="rounded=1;whiteSpace=wrap;html=1;fontSize=14;fillColor=none;" vertex="1" parent="1">
                    <mxGeometry x="-2890.52" y="653.9100000000002" width="130" height="105" as="geometry"/>
                </mxCell>
                <mxCell id="rgWhBiXqlmTNgqhzaKGn-284" value="" style="endArrow=none;html=1;rounded=0;fontSize=14;entryX=0;entryY=0.5;entryDx=0;entryDy=0;exitX=1;exitY=0.5;exitDx=0;exitDy=0;" edge="1" parent="1" source="rgWhBiXqlmTNgqhzaKGn-283" target="rgWhBiXqlmTNgqhzaKGn-283">
                    <mxGeometry width="50" height="50" relative="1" as="geometry">
                        <mxPoint x="-2790.52" y="703.9100000000002" as="sourcePoint"/>
                        <mxPoint x="-2400.52" y="778.9100000000002" as="targetPoint"/>
                    </mxGeometry>
                </mxCell>
                <mxCell id="rgWhBiXqlmTNgqhzaKGn-285" value="&lt;font style=&quot;font-size: 12px;&quot;&gt;Processing_name_1&lt;/font&gt;" style="text;html=1;strokeColor=none;fillColor=none;align=center;verticalAlign=middle;whiteSpace=wrap;rounded=0;fontSize=14;" vertex="1" parent="1">
                    <mxGeometry x="-2860.52" y="663.9100000000002" width="70" height="33.81" as="geometry"/>
                </mxCell>
                <mxCell id="rgWhBiXqlmTNgqhzaKGn-286" value="Processing_1" style="text;html=1;strokeColor=none;fillColor=none;align=center;verticalAlign=middle;whiteSpace=wrap;rounded=0;fontSize=14;" vertex="1" parent="1">
                    <mxGeometry x="-2860.52" y="716.1200000000002" width="60" height="30" as="geometry"/>
                </mxCell>
                <mxCell id="rgWhBiXqlmTNgqhzaKGn-287" value="" style="rounded=1;whiteSpace=wrap;html=1;fontSize=14;fillColor=none;" vertex="1" parent="1">
                    <mxGeometry x="-2730.52" y="653.9100000000002" width="130" height="105" as="geometry"/>
                </mxCell>
                <mxCell id="rgWhBiXqlmTNgqhzaKGn-288" value="" style="endArrow=none;html=1;rounded=0;fontSize=14;entryX=0;entryY=0.5;entryDx=0;entryDy=0;exitX=1;exitY=0.5;exitDx=0;exitDy=0;" edge="1" parent="1" source="rgWhBiXqlmTNgqhzaKGn-287" target="rgWhBiXqlmTNgqhzaKGn-287">
                    <mxGeometry width="50" height="50" relative="1" as="geometry">
                        <mxPoint x="-2630.52" y="703.9100000000002" as="sourcePoint"/>
                        <mxPoint x="-2240.52" y="778.9100000000002" as="targetPoint"/>
                    </mxGeometry>
                </mxCell>
                <mxCell id="rgWhBiXqlmTNgqhzaKGn-289" value="&lt;font style=&quot;font-size: 12px;&quot;&gt;Processing_name_2&lt;/font&gt;" style="text;html=1;strokeColor=none;fillColor=none;align=center;verticalAlign=middle;whiteSpace=wrap;rounded=0;fontSize=14;" vertex="1" parent="1">
                    <mxGeometry x="-2700.52" y="661.4100000000002" width="70" height="36.31" as="geometry"/>
                </mxCell>
                <mxCell id="rgWhBiXqlmTNgqhzaKGn-290" value="Processing_2" style="text;html=1;strokeColor=none;fillColor=none;align=center;verticalAlign=middle;whiteSpace=wrap;rounded=0;fontSize=14;" vertex="1" parent="1">
                    <mxGeometry x="-2695.52" y="716.1200000000002" width="60" height="30" as="geometry"/>
                </mxCell>
                <mxCell id="rgWhBiXqlmTNgqhzaKGn-291" value="&lt;b&gt;STRUCTURE OF LOCAL &lt;br&gt;THIS IS ALSO STRUCTURE OF GLOBAL&lt;/b&gt;" style="text;html=1;strokeColor=none;fillColor=none;align=center;verticalAlign=middle;whiteSpace=wrap;rounded=0;fontSize=25;" vertex="1" parent="1">
                    <mxGeometry x="-3255" y="41.84" width="585" height="20" as="geometry"/>
                </mxCell>
                <mxCell id="PBbKRViu295syacfndgN-57" value="&lt;b&gt;ORDER OF EXECUTION IN EVERY NODE&lt;br&gt;&lt;br&gt;&lt;/b&gt;" style="text;html=1;strokeColor=none;fillColor=none;align=center;verticalAlign=middle;whiteSpace=wrap;rounded=0;fontSize=25;" vertex="1" parent="1">
                    <mxGeometry x="-910" y="10.000000000000014" width="585" height="20" as="geometry"/>
                </mxCell>
                <mxCell id="PBbKRViu295syacfndgN-58" value="PRE_RESPONSE_PROCESSING" style="rounded=1;whiteSpace=wrap;html=1;" vertex="1" parent="1">
                    <mxGeometry x="-740" y="69.99999999999999" width="290" height="60" as="geometry"/>
                </mxCell>
                <mxCell id="PBbKRViu295syacfndgN-59" value="RESPONSE" style="rounded=1;whiteSpace=wrap;html=1;" vertex="1" parent="1">
                    <mxGeometry x="-740" y="193.61000000000004" width="290" height="60" as="geometry"/>
                </mxCell>
                <mxCell id="PBbKRViu295syacfndgN-60" value="" style="rounded=1;whiteSpace=wrap;html=1;fontSize=14;" vertex="1" parent="1">
                    <mxGeometry x="-2319.09" y="158.15999999999997" width="290" height="300" as="geometry"/>
                </mxCell>
                <mxCell id="PBbKRViu295syacfndgN-61" value="&lt;i&gt;MISC&lt;/i&gt;" style="text;html=1;strokeColor=none;fillColor=none;align=center;verticalAlign=middle;whiteSpace=wrap;rounded=0;fontSize=14;" vertex="1" parent="1">
                    <mxGeometry x="-2209.09" y="156.84000000000003" width="40" height="50" as="geometry"/>
                </mxCell>
                <mxCell id="PBbKRViu295syacfndgN-62" value="" style="endArrow=none;html=1;rounded=0;fontSize=12;exitX=0;exitY=0.25;exitDx=0;exitDy=0;entryX=1;entryY=0.25;entryDx=0;entryDy=0;" edge="1" parent="1" source="PBbKRViu295syacfndgN-60" target="PBbKRViu295syacfndgN-60">
                    <mxGeometry width="50" height="50" relative="1" as="geometry">
                        <mxPoint x="-2129.09" y="178.15999999999997" as="sourcePoint"/>
                        <mxPoint x="-2079.09" y="128.15999999999997" as="targetPoint"/>
                    </mxGeometry>
                </mxCell>
                <mxCell id="PBbKRViu295syacfndgN-63" value="" style="rounded=1;whiteSpace=wrap;html=1;fontSize=14;fillColor=none;" vertex="1" parent="1">
                    <mxGeometry x="-2309.09" y="248.15999999999997" width="130" height="105" as="geometry"/>
                </mxCell>
                <mxCell id="PBbKRViu295syacfndgN-64" value="" style="endArrow=none;html=1;rounded=0;fontSize=14;entryX=0;entryY=0.5;entryDx=0;entryDy=0;exitX=1;exitY=0.5;exitDx=0;exitDy=0;" edge="1" parent="1" source="PBbKRViu295syacfndgN-63" target="PBbKRViu295syacfndgN-63">
                    <mxGeometry width="50" height="50" relative="1" as="geometry">
                        <mxPoint x="-2209.09" y="298.15999999999997" as="sourcePoint"/>
                        <mxPoint x="-1819.09" y="373.15999999999997" as="targetPoint"/>
                    </mxGeometry>
                </mxCell>
                <mxCell id="PBbKRViu295syacfndgN-65" value="Misc_key_1" style="text;html=1;strokeColor=none;fillColor=none;align=center;verticalAlign=middle;whiteSpace=wrap;rounded=0;fontSize=14;" vertex="1" parent="1">
                    <mxGeometry x="-2279.09" y="258.15999999999997" width="70" height="33.81" as="geometry"/>
                </mxCell>
                <mxCell id="PBbKRViu295syacfndgN-66" value="Value_1" style="text;html=1;strokeColor=none;fillColor=none;align=center;verticalAlign=middle;whiteSpace=wrap;rounded=0;fontSize=14;" vertex="1" parent="1">
                    <mxGeometry x="-2279.09" y="310.37" width="60" height="30" as="geometry"/>
                </mxCell>
                <mxCell id="PBbKRViu295syacfndgN-67" value="" style="rounded=1;whiteSpace=wrap;html=1;fontSize=14;fillColor=none;" vertex="1" parent="1">
                    <mxGeometry x="-2169.09" y="248.15999999999997" width="130" height="105" as="geometry"/>
                </mxCell>
                <mxCell id="PBbKRViu295syacfndgN-68" value="" style="endArrow=none;html=1;rounded=0;fontSize=14;entryX=0;entryY=0.5;entryDx=0;entryDy=0;exitX=1;exitY=0.5;exitDx=0;exitDy=0;" edge="1" parent="1" source="PBbKRViu295syacfndgN-67" target="PBbKRViu295syacfndgN-67">
                    <mxGeometry width="50" height="50" relative="1" as="geometry">
                        <mxPoint x="-2069.09" y="298.15999999999997" as="sourcePoint"/>
                        <mxPoint x="-1679.09" y="373.15999999999997" as="targetPoint"/>
                    </mxGeometry>
                </mxCell>
                <mxCell id="PBbKRViu295syacfndgN-69" value="Misc_key_2" style="text;html=1;strokeColor=none;fillColor=none;align=center;verticalAlign=middle;whiteSpace=wrap;rounded=0;fontSize=14;" vertex="1" parent="1">
                    <mxGeometry x="-2139.09" y="258.15999999999997" width="70" height="33.81" as="geometry"/>
                </mxCell>
                <mxCell id="PBbKRViu295syacfndgN-70" value="Value_2" style="text;html=1;strokeColor=none;fillColor=none;align=center;verticalAlign=middle;whiteSpace=wrap;rounded=0;fontSize=14;" vertex="1" parent="1">
                    <mxGeometry x="-2139.09" y="310.37" width="60" height="30" as="geometry"/>
                </mxCell>
                <mxCell id="PBbKRViu295syacfndgN-71" value="" style="rounded=1;whiteSpace=wrap;html=1;fontSize=14;" vertex="1" parent="1">
                    <mxGeometry x="-2319.09" y="533.16" width="290" height="300" as="geometry"/>
                </mxCell>
                <mxCell id="PBbKRViu295syacfndgN-72" value="&lt;i&gt;PRE_RESPONSE_PROCESSING&lt;/i&gt;" style="text;html=1;strokeColor=none;fillColor=none;align=center;verticalAlign=middle;whiteSpace=wrap;rounded=0;fontSize=14;" vertex="1" parent="1">
                    <mxGeometry x="-2209.09" y="531.84" width="40" height="50" as="geometry"/>
                </mxCell>
                <mxCell id="PBbKRViu295syacfndgN-73" value="" style="endArrow=none;html=1;rounded=0;fontSize=12;exitX=0;exitY=0.25;exitDx=0;exitDy=0;entryX=1;entryY=0.25;entryDx=0;entryDy=0;" edge="1" parent="1" source="PBbKRViu295syacfndgN-71" target="PBbKRViu295syacfndgN-71">
                    <mxGeometry width="50" height="50" relative="1" as="geometry">
                        <mxPoint x="-2129.09" y="553.16" as="sourcePoint"/>
                        <mxPoint x="-2079.09" y="503.15999999999997" as="targetPoint"/>
                    </mxGeometry>
                </mxCell>
                <mxCell id="PBbKRViu295syacfndgN-74" value="" style="rounded=1;whiteSpace=wrap;html=1;fontSize=14;fillColor=none;" vertex="1" parent="1">
                    <mxGeometry x="-2309.09" y="623.16" width="130" height="105" as="geometry"/>
                </mxCell>
                <mxCell id="PBbKRViu295syacfndgN-75" value="" style="endArrow=none;html=1;rounded=0;fontSize=14;entryX=0;entryY=0.5;entryDx=0;entryDy=0;exitX=1;exitY=0.5;exitDx=0;exitDy=0;" edge="1" parent="1" source="PBbKRViu295syacfndgN-74" target="PBbKRViu295syacfndgN-74">
                    <mxGeometry width="50" height="50" relative="1" as="geometry">
                        <mxPoint x="-2209.09" y="673.16" as="sourcePoint"/>
                        <mxPoint x="-1819.09" y="748.1599999999999" as="targetPoint"/>
                    </mxGeometry>
                </mxCell>
                <mxCell id="PBbKRViu295syacfndgN-76" value="&lt;font style=&quot;font-size: 12px;&quot;&gt;Processing_name_1&lt;/font&gt;" style="text;html=1;strokeColor=none;fillColor=none;align=center;verticalAlign=middle;whiteSpace=wrap;rounded=0;fontSize=14;" vertex="1" parent="1">
                    <mxGeometry x="-2279.09" y="633.16" width="70" height="33.81" as="geometry"/>
                </mxCell>
                <mxCell id="PBbKRViu295syacfndgN-77" value="Processing_1" style="text;html=1;strokeColor=none;fillColor=none;align=center;verticalAlign=middle;whiteSpace=wrap;rounded=0;fontSize=14;" vertex="1" parent="1">
                    <mxGeometry x="-2279.09" y="685.3699999999999" width="60" height="30" as="geometry"/>
                </mxCell>
                <mxCell id="PBbKRViu295syacfndgN-78" value="" style="rounded=1;whiteSpace=wrap;html=1;fontSize=14;fillColor=none;" vertex="1" parent="1">
                    <mxGeometry x="-2169.09" y="623.16" width="130" height="105" as="geometry"/>
                </mxCell>
                <mxCell id="PBbKRViu295syacfndgN-79" value="" style="endArrow=none;html=1;rounded=0;fontSize=14;entryX=0;entryY=0.5;entryDx=0;entryDy=0;exitX=1;exitY=0.5;exitDx=0;exitDy=0;" edge="1" parent="1" source="PBbKRViu295syacfndgN-78" target="PBbKRViu295syacfndgN-78">
                    <mxGeometry width="50" height="50" relative="1" as="geometry">
                        <mxPoint x="-2069.09" y="673.16" as="sourcePoint"/>
                        <mxPoint x="-1679.09" y="748.1599999999999" as="targetPoint"/>
                    </mxGeometry>
                </mxCell>
                <mxCell id="PBbKRViu295syacfndgN-80" value="&lt;font style=&quot;font-size: 12px;&quot;&gt;Processing_name_2&lt;/font&gt;" style="text;html=1;strokeColor=none;fillColor=none;align=center;verticalAlign=middle;whiteSpace=wrap;rounded=0;fontSize=14;" vertex="1" parent="1">
                    <mxGeometry x="-2139.09" y="633.16" width="70" height="33.81" as="geometry"/>
                </mxCell>
                <mxCell id="PBbKRViu295syacfndgN-81" value="Processing_2" style="text;html=1;strokeColor=none;fillColor=none;align=center;verticalAlign=middle;whiteSpace=wrap;rounded=0;fontSize=14;" vertex="1" parent="1">
                    <mxGeometry x="-2139.09" y="685.3699999999999" width="60" height="30" as="geometry"/>
                </mxCell>
                <mxCell id="PBbKRViu295syacfndgN-82" value="" style="rounded=1;whiteSpace=wrap;html=1;fontSize=14;" vertex="1" parent="1">
                    <mxGeometry x="-1949.0900000000001" y="540" width="290" height="300" as="geometry"/>
                </mxCell>
                <mxCell id="PBbKRViu295syacfndgN-83" value="&lt;i&gt;RESPONSE&lt;/i&gt;" style="text;html=1;strokeColor=none;fillColor=none;align=center;verticalAlign=middle;whiteSpace=wrap;rounded=0;fontSize=14;" vertex="1" parent="1">
                    <mxGeometry x="-1819.09" y="526.84" width="40" height="50" as="geometry"/>
                </mxCell>
                <mxCell id="PBbKRViu295syacfndgN-84" value="Response string / response function" style="text;html=1;strokeColor=none;fillColor=none;align=center;verticalAlign=middle;whiteSpace=wrap;rounded=0;fontSize=14;" vertex="1" parent="1">
                    <mxGeometry x="-1861.59" y="698.1599999999999" width="135" height="30" as="geometry"/>
                </mxCell>
                <mxCell id="PBbKRViu295syacfndgN-85" value="" style="endArrow=none;html=1;rounded=0;fontSize=12;exitX=0;exitY=0.25;exitDx=0;exitDy=0;entryX=1;entryY=0.25;entryDx=0;entryDy=0;" edge="1" parent="1" source="PBbKRViu295syacfndgN-82" target="PBbKRViu295syacfndgN-82">
                    <mxGeometry width="50" height="50" relative="1" as="geometry">
                        <mxPoint x="-1739.09" y="548.16" as="sourcePoint"/>
                        <mxPoint x="-1689.09" y="498.15999999999997" as="targetPoint"/>
                    </mxGeometry>
                </mxCell>
                <mxCell id="PBbKRViu295syacfndgN-86" value="" style="rounded=1;whiteSpace=wrap;html=1;fontSize=14;" vertex="1" parent="1">
                    <mxGeometry x="-1950" y="164.27999999999997" width="330" height="295" as="geometry"/>
                </mxCell>
                <mxCell id="PBbKRViu295syacfndgN-87" value="&lt;i&gt;PRE_TRANSITION_PROCESSING&lt;/i&gt;" style="text;html=1;strokeColor=none;fillColor=none;align=center;verticalAlign=middle;whiteSpace=wrap;rounded=0;fontSize=14;" vertex="1" parent="1">
                    <mxGeometry x="-1830" y="168.63" width="40" height="50" as="geometry"/>
                </mxCell>
                <mxCell id="PBbKRViu295syacfndgN-88" value="" style="endArrow=none;html=1;rounded=0;fontSize=12;exitX=0;exitY=0.25;exitDx=0;exitDy=0;entryX=1;entryY=0.25;entryDx=0;entryDy=0;" edge="1" parent="1" source="PBbKRViu295syacfndgN-86" target="PBbKRViu295syacfndgN-86">
                    <mxGeometry width="50" height="50" relative="1" as="geometry">
                        <mxPoint x="-1750" y="189.94999999999993" as="sourcePoint"/>
                        <mxPoint x="-1700" y="139.94999999999993" as="targetPoint"/>
                    </mxGeometry>
                </mxCell>
                <mxCell id="PBbKRViu295syacfndgN-89" value="" style="rounded=1;whiteSpace=wrap;html=1;fontSize=14;fillColor=none;" vertex="1" parent="1">
                    <mxGeometry x="-1930" y="259.80999999999995" width="130" height="105" as="geometry"/>
                </mxCell>
                <mxCell id="PBbKRViu295syacfndgN-90" value="" style="endArrow=none;html=1;rounded=0;fontSize=14;entryX=0;entryY=0.5;entryDx=0;entryDy=0;exitX=1;exitY=0.5;exitDx=0;exitDy=0;" edge="1" parent="1" source="PBbKRViu295syacfndgN-89" target="PBbKRViu295syacfndgN-89">
                    <mxGeometry width="50" height="50" relative="1" as="geometry">
                        <mxPoint x="-1830" y="309.80999999999995" as="sourcePoint"/>
                        <mxPoint x="-1440" y="384.80999999999995" as="targetPoint"/>
                    </mxGeometry>
                </mxCell>
                <mxCell id="PBbKRViu295syacfndgN-91" value="&lt;font style=&quot;font-size: 12px;&quot;&gt;Processing_name_1&lt;/font&gt;" style="text;html=1;strokeColor=none;fillColor=none;align=center;verticalAlign=middle;whiteSpace=wrap;rounded=0;fontSize=14;" vertex="1" parent="1">
                    <mxGeometry x="-1900" y="269.80999999999995" width="70" height="33.81" as="geometry"/>
                </mxCell>
                <mxCell id="PBbKRViu295syacfndgN-92" value="Processing_1" style="text;html=1;strokeColor=none;fillColor=none;align=center;verticalAlign=middle;whiteSpace=wrap;rounded=0;fontSize=14;" vertex="1" parent="1">
                    <mxGeometry x="-1900" y="322.02" width="60" height="30" as="geometry"/>
                </mxCell>
                <mxCell id="PBbKRViu295syacfndgN-93" value="" style="rounded=1;whiteSpace=wrap;html=1;fontSize=14;fillColor=none;" vertex="1" parent="1">
                    <mxGeometry x="-1770" y="259.80999999999995" width="130" height="105" as="geometry"/>
                </mxCell>
                <mxCell id="PBbKRViu295syacfndgN-94" value="" style="endArrow=none;html=1;rounded=0;fontSize=14;entryX=0;entryY=0.5;entryDx=0;entryDy=0;exitX=1;exitY=0.5;exitDx=0;exitDy=0;" edge="1" parent="1" source="PBbKRViu295syacfndgN-93" target="PBbKRViu295syacfndgN-93">
                    <mxGeometry width="50" height="50" relative="1" as="geometry">
                        <mxPoint x="-1670" y="309.80999999999995" as="sourcePoint"/>
                        <mxPoint x="-1280" y="384.80999999999995" as="targetPoint"/>
                    </mxGeometry>
                </mxCell>
                <mxCell id="PBbKRViu295syacfndgN-95" value="&lt;font style=&quot;font-size: 12px;&quot;&gt;Processing_name_2&lt;/font&gt;" style="text;html=1;strokeColor=none;fillColor=none;align=center;verticalAlign=middle;whiteSpace=wrap;rounded=0;fontSize=14;" vertex="1" parent="1">
                    <mxGeometry x="-1740" y="267.30999999999995" width="70" height="36.31" as="geometry"/>
                </mxCell>
                <mxCell id="PBbKRViu295syacfndgN-96" value="Processing_2" style="text;html=1;strokeColor=none;fillColor=none;align=center;verticalAlign=middle;whiteSpace=wrap;rounded=0;fontSize=14;" vertex="1" parent="1">
                    <mxGeometry x="-1735" y="322.02" width="60" height="30" as="geometry"/>
                </mxCell>
                <mxCell id="PBbKRViu295syacfndgN-97" value="" style="rounded=1;whiteSpace=wrap;html=1;fontSize=14;" vertex="1" parent="1">
                    <mxGeometry x="-1559.09" y="173.15999999999997" width="330" height="295" as="geometry"/>
                </mxCell>
                <mxCell id="PBbKRViu295syacfndgN-98" value="&lt;i&gt;TRANSITIONS&lt;/i&gt;" style="text;html=1;strokeColor=none;fillColor=none;align=center;verticalAlign=middle;whiteSpace=wrap;rounded=0;fontSize=14;" vertex="1" parent="1">
                    <mxGeometry x="-1446.58" y="158.15999999999997" width="90" height="61.32" as="geometry"/>
                </mxCell>
                <mxCell id="PBbKRViu295syacfndgN-99" value="" style="endArrow=none;html=1;rounded=0;fontSize=12;exitX=0;exitY=0.25;exitDx=0;exitDy=0;entryX=1;entryY=0.25;entryDx=0;entryDy=0;" edge="1" parent="1" source="PBbKRViu295syacfndgN-97" target="PBbKRViu295syacfndgN-97">
                    <mxGeometry width="50" height="50" relative="1" as="geometry">
                        <mxPoint x="-1366.58" y="190.79999999999995" as="sourcePoint"/>
                        <mxPoint x="-1316.58" y="140.79999999999995" as="targetPoint"/>
                    </mxGeometry>
                </mxCell>
                <mxCell id="PBbKRViu295syacfndgN-100" value="" style="rounded=1;whiteSpace=wrap;html=1;fontSize=14;fillColor=none;" vertex="1" parent="1">
                    <mxGeometry x="-1546.58" y="260.65999999999997" width="130" height="105" as="geometry"/>
                </mxCell>
                <mxCell id="PBbKRViu295syacfndgN-101" value="" style="endArrow=none;html=1;rounded=0;fontSize=14;entryX=0;entryY=0.5;entryDx=0;entryDy=0;exitX=1;exitY=0.5;exitDx=0;exitDy=0;" edge="1" parent="1" source="PBbKRViu295syacfndgN-100" target="PBbKRViu295syacfndgN-100">
                    <mxGeometry width="50" height="50" relative="1" as="geometry">
                        <mxPoint x="-1446.58" y="310.65999999999997" as="sourcePoint"/>
                        <mxPoint x="-1056.58" y="385.65999999999997" as="targetPoint"/>
                    </mxGeometry>
                </mxCell>
                <mxCell id="PBbKRViu295syacfndgN-102" value="&lt;div&gt;(FLOW, NODE)&lt;/div&gt;&lt;div&gt;or function from df_engine.labels&lt;br&gt;&lt;/div&gt;" style="text;html=1;strokeColor=none;fillColor=none;align=center;verticalAlign=middle;whiteSpace=wrap;rounded=0;fontSize=14;" vertex="1" parent="1">
                    <mxGeometry x="-1552.1" y="270.65999999999997" width="140" height="33.81" as="geometry"/>
                </mxCell>
                <mxCell id="PBbKRViu295syacfndgN-103" value="&lt;div style=&quot;font-size: 13px;&quot;&gt;&lt;font style=&quot;font-size: 13px;&quot;&gt;Condition or&lt;br&gt;&lt;/font&gt;&lt;/div&gt;&lt;div style=&quot;font-size: 13px;&quot;&gt;&lt;font style=&quot;font-size: 13px;&quot;&gt;&amp;nbsp;condition function&lt;br&gt;&lt;/font&gt;&lt;/div&gt;" style="text;html=1;strokeColor=none;fillColor=none;align=center;verticalAlign=middle;whiteSpace=wrap;rounded=0;fontSize=14;" vertex="1" parent="1">
                    <mxGeometry x="-1559.09" y="318.15999999999997" width="160" height="40" as="geometry"/>
                </mxCell>
                <mxCell id="PBbKRViu295syacfndgN-104" value="" style="rounded=1;whiteSpace=wrap;html=1;fontSize=14;fillColor=none;" vertex="1" parent="1">
                    <mxGeometry x="-1386.58" y="260.65999999999997" width="144.48" height="106.38" as="geometry"/>
                </mxCell>
                <mxCell id="PBbKRViu295syacfndgN-105" value="" style="endArrow=none;html=1;rounded=0;fontSize=14;entryX=0;entryY=0.5;entryDx=0;entryDy=0;exitX=1;exitY=0.5;exitDx=0;exitDy=0;" edge="1" parent="1" source="PBbKRViu295syacfndgN-104" target="PBbKRViu295syacfndgN-104">
                    <mxGeometry width="50" height="50" relative="1" as="geometry">
                        <mxPoint x="-1286.58" y="310.65999999999997" as="sourcePoint"/>
                        <mxPoint x="-896.5799999999999" y="385.65999999999997" as="targetPoint"/>
                    </mxGeometry>
                </mxCell>
                <mxCell id="PBbKRViu295syacfndgN-106" value="&lt;font style=&quot;font-size: 24px;&quot;&gt;&lt;b&gt;NODE&lt;/b&gt;&lt;/font&gt;" style="text;html=1;strokeColor=none;fillColor=none;align=center;verticalAlign=middle;whiteSpace=wrap;rounded=0;fontSize=12;" vertex="1" parent="1">
                    <mxGeometry x="-1815" y="108.15999999999997" width="60" height="30" as="geometry"/>
                </mxCell>
                <mxCell id="PBbKRViu295syacfndgN-107" value="" style="rounded=1;whiteSpace=wrap;html=1;fontSize=12;fillColor=none;" vertex="1" parent="1">
                    <mxGeometry x="-2360" y="100" width="1150" height="751.32" as="geometry"/>
                </mxCell>
                <mxCell id="PBbKRViu295syacfndgN-108" value="&lt;div style=&quot;font-size: 13px;&quot;&gt;&lt;font style=&quot;font-size: 13px;&quot;&gt;Condition or&lt;br&gt;&lt;/font&gt;&lt;/div&gt;&lt;div style=&quot;font-size: 13px;&quot;&gt;&lt;font style=&quot;font-size: 13px;&quot;&gt;&amp;nbsp;condition function&lt;br&gt;&lt;/font&gt;&lt;/div&gt;" style="text;html=1;strokeColor=none;fillColor=none;align=center;verticalAlign=middle;whiteSpace=wrap;rounded=0;fontSize=14;" vertex="1" parent="1">
                    <mxGeometry x="-1389.09" y="320.3699999999999" width="160" height="40" as="geometry"/>
                </mxCell>
                <mxCell id="PBbKRViu295syacfndgN-109" value="&lt;div&gt;(FLOW, NODE)&lt;/div&gt;&lt;div&gt;or function from df_engine.labels&lt;br&gt;&lt;/div&gt;" style="text;html=1;strokeColor=none;fillColor=none;align=center;verticalAlign=middle;whiteSpace=wrap;rounded=0;fontSize=14;" vertex="1" parent="1">
                    <mxGeometry x="-1382.1" y="271.77" width="140" height="33.81" as="geometry"/>
                </mxCell>
                <mxCell id="PBbKRViu295syacfndgN-110" value="PRE_TRANSITION_PROCESSING" style="rounded=1;whiteSpace=wrap;html=1;" vertex="1" parent="1">
                    <mxGeometry x="-740" y="310.00000000000006" width="290" height="60" as="geometry"/>
                </mxCell>
                <mxCell id="PBbKRViu295syacfndgN-111" value="TRANSITION" style="rounded=1;whiteSpace=wrap;html=1;" vertex="1" parent="1">
                    <mxGeometry x="-740" y="431.77000000000004" width="290" height="60" as="geometry"/>
                </mxCell>
                <mxCell id="PBbKRViu295syacfndgN-112" value="" style="endArrow=classic;html=1;rounded=0;entryX=0.5;entryY=0;entryDx=0;entryDy=0;strokeWidth=3;" edge="1" parent="1" source="PBbKRViu295syacfndgN-58" target="PBbKRViu295syacfndgN-59">
                    <mxGeometry width="50" height="50" relative="1" as="geometry">
                        <mxPoint x="-620" y="190" as="sourcePoint"/>
                        <mxPoint x="-570" y="140" as="targetPoint"/>
                    </mxGeometry>
                </mxCell>
                <mxCell id="PBbKRViu295syacfndgN-113" value="" style="endArrow=classic;html=1;rounded=0;strokeWidth=3;" edge="1" parent="1">
                    <mxGeometry width="50" height="50" relative="1" as="geometry">
                        <mxPoint x="-600" y="251.84" as="sourcePoint"/>
                        <mxPoint x="-600" y="310" as="targetPoint"/>
                    </mxGeometry>
                </mxCell>
                <mxCell id="PBbKRViu295syacfndgN-114" value="" style="endArrow=classic;html=1;rounded=0;strokeWidth=3;" edge="1" parent="1">
                    <mxGeometry width="50" height="50" relative="1" as="geometry">
                        <mxPoint x="-600" y="370" as="sourcePoint"/>
                        <mxPoint x="-600" y="430" as="targetPoint"/>
                    </mxGeometry>
                </mxCell>
                <mxCell id="PBbKRViu295syacfndgN-115" value="&lt;div&gt;MISC&lt;/div&gt;&lt;div&gt;(storage of variables, can be used on every stage)&lt;br&gt;&lt;/div&gt;" style="rounded=1;whiteSpace=wrap;html=1;" vertex="1" parent="1">
                    <mxGeometry x="-400" y="70" width="330" height="70" as="geometry"/>
                </mxCell>
                <mxCell id="PBbKRViu295syacfndgN-116" value="&lt;div&gt;Red dictionaries stand for the FALLBACK node&lt;br&gt;&lt;/div&gt;&lt;div&gt;Yellow dictionaries stand for the SCRIPT level&lt;br&gt;&lt;/div&gt;&lt;div&gt;Green dictionaries stand for the FLOW level&lt;br&gt;&lt;/div&gt;&lt;div&gt;Blue dictionaries stand for the NODE level &lt;br&gt;&lt;/div&gt;" style="text;html=1;strokeColor=none;fillColor=none;align=center;verticalAlign=middle;whiteSpace=wrap;rounded=0;fontSize=14;" vertex="1" parent="1">
                    <mxGeometry x="440" y="710" width="430" height="30" as="geometry"/>
                </mxCell>
                <mxCell id="PBbKRViu295syacfndgN-117" value="&lt;div&gt;Red dictionaries stand for the FALLBACK node&lt;br&gt;&lt;/div&gt;&lt;div&gt;Yellow dictionaries stand for the SCRIPT level&lt;br&gt;&lt;/div&gt;&lt;div&gt;Green dictionaries stand for the FLOW level&lt;br&gt;&lt;/div&gt;&lt;div&gt;Blue dictionaries stand for the NODE level &lt;br&gt;&lt;/div&gt;" style="text;html=1;strokeColor=none;fillColor=none;align=center;verticalAlign=middle;whiteSpace=wrap;rounded=0;fontSize=14;" vertex="1" parent="1">
                    <mxGeometry x="1337.51" y="710" width="430" height="30" as="geometry"/>
                </mxCell>
                <mxCell id="PBbKRViu295syacfndgN-118" value="&lt;div&gt;Red dictionaries stand for the FALLBACK node&lt;br&gt;&lt;/div&gt;&lt;div&gt;Yellow dictionaries stand for the SCRIPT level&lt;br&gt;&lt;/div&gt;&lt;div&gt;Green dictionaries stand for the FLOW level&lt;br&gt;&lt;/div&gt;&lt;div&gt;Blue dictionaries stand for the NODE level &lt;br&gt;&lt;/div&gt;" style="text;html=1;strokeColor=none;fillColor=none;align=center;verticalAlign=middle;whiteSpace=wrap;rounded=0;fontSize=14;" vertex="1" parent="1">
                    <mxGeometry x="2200" y="715.37" width="430" height="30" as="geometry"/>
                </mxCell>
                <mxCell id="PBbKRViu295syacfndgN-119" value="&lt;div&gt;Red dictionaries stand for the FALLBACK node&lt;br&gt;&lt;/div&gt;&lt;div&gt;Yellow dictionaries stand for the SCRIPT level&lt;br&gt;&lt;/div&gt;&lt;div&gt;Green dictionaries stand for the FLOW level&lt;br&gt;&lt;/div&gt;&lt;div&gt;Blue dictionaries stand for the NODE level &lt;br&gt;&lt;/div&gt;" style="text;html=1;strokeColor=none;fillColor=none;align=center;verticalAlign=middle;whiteSpace=wrap;rounded=0;fontSize=14;" vertex="1" parent="1">
                    <mxGeometry x="2788.32" y="716.12" width="430" height="30" as="geometry"/>
                </mxCell>
                <mxCell id="PBbKRViu295syacfndgN-120" value="TRANSITION1" style="rounded=0;whiteSpace=wrap;html=1;" vertex="1" parent="1">
                    <mxGeometry x="3400" y="120" width="120" height="60" as="geometry"/>
                </mxCell>
                <mxCell id="PBbKRViu295syacfndgN-121" value="&lt;div&gt;CONDITION1:&lt;/div&gt;&lt;div&gt;True&lt;br&gt;&lt;/div&gt;" style="rounded=0;whiteSpace=wrap;html=1;fillColor=#d5e8d4;strokeColor=#82b366;" vertex="1" parent="1">
                    <mxGeometry x="3520" y="120" width="90" height="60" as="geometry"/>
                </mxCell>
                <mxCell id="PBbKRViu295syacfndgN-122" value="" style="edgeStyle=orthogonalEdgeStyle;rounded=0;orthogonalLoop=1;jettySize=auto;html=1;" edge="1" parent="1" source="PBbKRViu295syacfndgN-123" target="PBbKRViu295syacfndgN-134">
                    <mxGeometry relative="1" as="geometry"/>
                </mxCell>
                <mxCell id="PBbKRViu295syacfndgN-123" value="&lt;div&gt;CONFIDENCE:&lt;/div&gt;&lt;div&gt;1&lt;br&gt;&lt;/div&gt;" style="rounded=0;whiteSpace=wrap;html=1;" vertex="1" parent="1">
                    <mxGeometry x="3610" y="120" width="110" height="60" as="geometry"/>
                </mxCell>
                <mxCell id="PBbKRViu295syacfndgN-124" value="TRANSITION2" style="rounded=0;whiteSpace=wrap;html=1;" vertex="1" parent="1">
                    <mxGeometry x="3400" y="190" width="120" height="60" as="geometry"/>
                </mxCell>
                <mxCell id="PBbKRViu295syacfndgN-125" value="&lt;div&gt;CONDITION2:&lt;/div&gt;&lt;div&gt;False&lt;br&gt;&lt;/div&gt;" style="rounded=0;whiteSpace=wrap;html=1;fillColor=#f8cecc;strokeColor=#b85450;" vertex="1" parent="1">
                    <mxGeometry x="3520" y="190" width="90" height="60" as="geometry"/>
                </mxCell>
                <mxCell id="PBbKRViu295syacfndgN-126" value="&lt;div&gt;CONFIDENCE:&lt;/div&gt;&lt;div&gt;3&lt;br&gt;&lt;/div&gt;" style="rounded=0;whiteSpace=wrap;html=1;" vertex="1" parent="1">
                    <mxGeometry x="3610" y="190" width="110" height="60" as="geometry"/>
                </mxCell>
                <mxCell id="PBbKRViu295syacfndgN-127" value="TRANSITION3" style="rounded=0;whiteSpace=wrap;html=1;" vertex="1" parent="1">
                    <mxGeometry x="3400" y="260" width="120" height="60" as="geometry"/>
                </mxCell>
                <mxCell id="PBbKRViu295syacfndgN-128" value="&lt;div&gt;CONDITION3:&lt;/div&gt;&lt;div&gt;True&lt;br&gt;&lt;/div&gt;" style="rounded=0;whiteSpace=wrap;html=1;fillColor=#d5e8d4;strokeColor=#82b366;" vertex="1" parent="1">
                    <mxGeometry x="3520" y="260" width="90" height="60" as="geometry"/>
                </mxCell>
                <mxCell id="PBbKRViu295syacfndgN-129" value="&lt;div&gt;CONFIDENCE:&lt;/div&gt;2" style="rounded=0;whiteSpace=wrap;html=1;" vertex="1" parent="1">
                    <mxGeometry x="3610" y="260" width="110" height="60" as="geometry"/>
                </mxCell>
                <mxCell id="PBbKRViu295syacfndgN-130" value="TRANSITION4" style="rounded=0;whiteSpace=wrap;html=1;" vertex="1" parent="1">
                    <mxGeometry x="3400" y="330" width="120" height="60" as="geometry"/>
                </mxCell>
                <mxCell id="PBbKRViu295syacfndgN-131" value="&lt;div&gt;CONDITION4:&lt;/div&gt;&lt;div&gt;True&lt;br&gt;&lt;/div&gt;" style="rounded=0;whiteSpace=wrap;html=1;fillColor=#d5e8d4;strokeColor=#82b366;" vertex="1" parent="1">
                    <mxGeometry x="3520" y="330" width="90" height="60" as="geometry"/>
                </mxCell>
                <mxCell id="PBbKRViu295syacfndgN-132" value="&lt;div&gt;CONFIDENCE:&lt;/div&gt;&lt;div&gt;2&lt;br&gt;&lt;/div&gt;" style="rounded=0;whiteSpace=wrap;html=1;" vertex="1" parent="1">
                    <mxGeometry x="3610" y="330" width="110" height="60" as="geometry"/>
                </mxCell>
                <mxCell id="PBbKRViu295syacfndgN-133" value="Transitions to choose from" style="text;html=1;align=center;verticalAlign=middle;resizable=0;points=[];autosize=1;strokeColor=none;fillColor=none;" vertex="1" parent="1">
                    <mxGeometry x="3455" y="65" width="180" height="20" as="geometry"/>
                </mxCell>
                <mxCell id="PBbKRViu295syacfndgN-134" value="TRANSITION1" style="rounded=0;whiteSpace=wrap;html=1;" vertex="1" parent="1">
                    <mxGeometry x="3760" y="120" width="120" height="60" as="geometry"/>
                </mxCell>
                <mxCell id="PBbKRViu295syacfndgN-135" value="&lt;div&gt;CONDITION1:&lt;/div&gt;&lt;div&gt;True&lt;br&gt;&lt;/div&gt;" style="rounded=0;whiteSpace=wrap;html=1;fillColor=#d5e8d4;strokeColor=#82b366;" vertex="1" parent="1">
                    <mxGeometry x="3880" y="120" width="90" height="60" as="geometry"/>
                </mxCell>
                <mxCell id="PBbKRViu295syacfndgN-136" value="&lt;div&gt;CONFIDENCE:&lt;/div&gt;&lt;div&gt;1&lt;br&gt;&lt;/div&gt;" style="rounded=0;whiteSpace=wrap;html=1;" vertex="1" parent="1">
                    <mxGeometry x="3970" y="120" width="110" height="60" as="geometry"/>
                </mxCell>
                <mxCell id="PBbKRViu295syacfndgN-137" value="TRANSITION3" style="rounded=0;whiteSpace=wrap;html=1;" vertex="1" parent="1">
                    <mxGeometry x="3760" y="260" width="120" height="60" as="geometry"/>
                </mxCell>
                <mxCell id="PBbKRViu295syacfndgN-138" value="&lt;div&gt;CONDITION3:&lt;/div&gt;&lt;div&gt;True&lt;br&gt;&lt;/div&gt;" style="rounded=0;whiteSpace=wrap;html=1;fillColor=#d5e8d4;strokeColor=#82b366;" vertex="1" parent="1">
                    <mxGeometry x="3880" y="260" width="90" height="60" as="geometry"/>
                </mxCell>
                <mxCell id="PBbKRViu295syacfndgN-139" value="&lt;div&gt;CONFIDENCE:&lt;/div&gt;2" style="rounded=0;whiteSpace=wrap;html=1;" vertex="1" parent="1">
                    <mxGeometry x="3970" y="260" width="110" height="60" as="geometry"/>
                </mxCell>
                <mxCell id="PBbKRViu295syacfndgN-140" value="TRANSITION4" style="rounded=0;whiteSpace=wrap;html=1;" vertex="1" parent="1">
                    <mxGeometry x="3760" y="330" width="120" height="60" as="geometry"/>
                </mxCell>
                <mxCell id="PBbKRViu295syacfndgN-141" value="&lt;div&gt;CONDITION4:&lt;/div&gt;&lt;div&gt;True&lt;br&gt;&lt;/div&gt;" style="rounded=0;whiteSpace=wrap;html=1;fillColor=#d5e8d4;strokeColor=#82b366;" vertex="1" parent="1">
                    <mxGeometry x="3880" y="330" width="90" height="60" as="geometry"/>
                </mxCell>
                <mxCell id="PBbKRViu295syacfndgN-142" value="&lt;div&gt;CONFIDENCE:&lt;/div&gt;&lt;div&gt;2&lt;br&gt;&lt;/div&gt;" style="rounded=0;whiteSpace=wrap;html=1;" vertex="1" parent="1">
                    <mxGeometry x="3970" y="330" width="110" height="60" as="geometry"/>
                </mxCell>
                <mxCell id="PBbKRViu295syacfndgN-143" value="We choose transitions where Condition is True" style="text;html=1;align=center;verticalAlign=middle;resizable=0;points=[];autosize=1;strokeColor=none;fillColor=none;fontSize=15;" vertex="1" parent="1">
                    <mxGeometry x="3730" y="65" width="370" height="20" as="geometry"/>
                </mxCell>
                <mxCell id="PBbKRViu295syacfndgN-144" value="&lt;div&gt;Among transitions where Condition is True, &lt;br&gt;&lt;/div&gt;&lt;div&gt;we choose ones with the highest confidence&lt;/div&gt;" style="text;html=1;align=center;verticalAlign=middle;resizable=0;points=[];autosize=1;strokeColor=none;fillColor=none;fontSize=15;" vertex="1" parent="1">
                    <mxGeometry x="4090" y="60" width="350" height="40" as="geometry"/>
                </mxCell>
                <mxCell id="PBbKRViu295syacfndgN-145" value="TRANSITION3" style="rounded=0;whiteSpace=wrap;html=1;" vertex="1" parent="1">
                    <mxGeometry x="4100" y="261.84000000000003" width="120" height="60" as="geometry"/>
                </mxCell>
                <mxCell id="PBbKRViu295syacfndgN-146" value="&lt;div&gt;CONDITION3:&lt;/div&gt;&lt;div&gt;True&lt;br&gt;&lt;/div&gt;" style="rounded=0;whiteSpace=wrap;html=1;fillColor=#d5e8d4;strokeColor=#82b366;" vertex="1" parent="1">
                    <mxGeometry x="4220" y="263.61" width="90" height="60" as="geometry"/>
                </mxCell>
                <mxCell id="PBbKRViu295syacfndgN-147" value="&lt;div&gt;CONFIDENCE:&lt;/div&gt;2" style="rounded=0;whiteSpace=wrap;html=1;" vertex="1" parent="1">
                    <mxGeometry x="4310" y="263.61" width="110" height="60" as="geometry"/>
                </mxCell>
                <mxCell id="PBbKRViu295syacfndgN-148" value="TRANSITION4" style="rounded=0;whiteSpace=wrap;html=1;" vertex="1" parent="1">
                    <mxGeometry x="4100" y="333.61" width="120" height="60" as="geometry"/>
                </mxCell>
                <mxCell id="PBbKRViu295syacfndgN-149" value="&lt;div&gt;CONDITION4:&lt;/div&gt;&lt;div&gt;True&lt;br&gt;&lt;/div&gt;" style="rounded=0;whiteSpace=wrap;html=1;fillColor=#d5e8d4;strokeColor=#82b366;" vertex="1" parent="1">
                    <mxGeometry x="4220" y="333.61" width="90" height="60" as="geometry"/>
                </mxCell>
                <mxCell id="PBbKRViu295syacfndgN-150" value="&lt;div&gt;CONFIDENCE:&lt;/div&gt;&lt;div&gt;2&lt;br&gt;&lt;/div&gt;" style="rounded=0;whiteSpace=wrap;html=1;" vertex="1" parent="1">
                    <mxGeometry x="4310" y="333.61" width="110" height="60" as="geometry"/>
                </mxCell>
                <mxCell id="PBbKRViu295syacfndgN-151" value="df_engine.labels.previous()" style="text;html=1;strokeColor=none;fillColor=none;align=center;verticalAlign=middle;whiteSpace=wrap;rounded=0;" vertex="1" parent="1">
                    <mxGeometry x="4910" y="276.32" width="230" height="60" as="geometry"/>
                </mxCell>
                <mxCell id="PBbKRViu295syacfndgN-152" value="CURRENT NODE" style="ellipse;whiteSpace=wrap;html=1;" vertex="1" parent="1">
                    <mxGeometry x="5140" y="276.32" width="120" height="80" as="geometry"/>
                </mxCell>
                <mxCell id="PBbKRViu295syacfndgN-153" value="PREVIOUSLY VISITED NODE" style="ellipse;whiteSpace=wrap;html=1;strokeColor=#82b366;fillColor=#97D077;" vertex="1" parent="1">
                    <mxGeometry x="4815" y="276.32" width="120" height="80" as="geometry"/>
                </mxCell>
                <mxCell id="PBbKRViu295syacfndgN-154" value="" style="endArrow=classic;html=1;rounded=0;entryX=1;entryY=0.5;entryDx=0;entryDy=0;strokeColor=#97D077;strokeWidth=3;" edge="1" parent="1" source="PBbKRViu295syacfndgN-152" target="PBbKRViu295syacfndgN-153">
                    <mxGeometry width="50" height="50" relative="1" as="geometry">
                        <mxPoint x="5040" y="336.32" as="sourcePoint"/>
                        <mxPoint x="5090" y="286.32" as="targetPoint"/>
                    </mxGeometry>
                </mxCell>
                <mxCell id="PBbKRViu295syacfndgN-155" value="PREVIOUS NODE IN FLOW" style="ellipse;whiteSpace=wrap;html=1;fillColor=#dae8fc;strokeColor=#6c8ebf;" vertex="1" parent="1">
                    <mxGeometry x="5140" y="136.32" width="120" height="80" as="geometry"/>
                </mxCell>
                <mxCell id="PBbKRViu295syacfndgN-156" value="NEXT NODE IN FLOW" style="ellipse;whiteSpace=wrap;html=1;fillColor=#f8cecc;strokeColor=#b85450;" vertex="1" parent="1">
                    <mxGeometry x="5140" y="406.32" width="120" height="80" as="geometry"/>
                </mxCell>
                <mxCell id="PBbKRViu295syacfndgN-157" value="" style="endArrow=classic;html=1;rounded=0;exitX=0.5;exitY=0;exitDx=0;exitDy=0;entryX=0.5;entryY=1;entryDx=0;entryDy=0;strokeColor=#7EA6E0;strokeWidth=4;" edge="1" parent="1" source="PBbKRViu295syacfndgN-152" target="PBbKRViu295syacfndgN-155">
                    <mxGeometry width="50" height="50" relative="1" as="geometry">
                        <mxPoint x="5040" y="336.32" as="sourcePoint"/>
                        <mxPoint x="5090" y="286.32" as="targetPoint"/>
                    </mxGeometry>
                </mxCell>
                <mxCell id="PBbKRViu295syacfndgN-158" value="df_engine.labels.backward()" style="text;html=1;strokeColor=none;fillColor=none;align=center;verticalAlign=middle;whiteSpace=wrap;rounded=0;" vertex="1" parent="1">
                    <mxGeometry x="5260" y="236.32" width="60" height="30" as="geometry"/>
                </mxCell>
                <mxCell id="PBbKRViu295syacfndgN-159" value="Note: all functions can take the transition confidence as first argument. " style="text;html=1;strokeColor=none;fillColor=none;align=center;verticalAlign=middle;whiteSpace=wrap;rounded=0;fontSize=14;" vertex="1" parent="1">
                    <mxGeometry x="4890" y="526.3199999999999" width="450" height="30" as="geometry"/>
                </mxCell>
                <mxCell id="PBbKRViu295syacfndgN-160" value="df_engine.labels.forward()" style="text;html=1;strokeColor=none;fillColor=none;align=center;verticalAlign=middle;whiteSpace=wrap;rounded=0;" vertex="1" parent="1">
                    <mxGeometry x="5260" y="366.32" width="60" height="30" as="geometry"/>
                </mxCell>
                <mxCell id="PBbKRViu295syacfndgN-161" value="FALLBACK NODE" style="ellipse;whiteSpace=wrap;html=1;fillColor=#e1d5e7;strokeColor=#9673a6;" vertex="1" parent="1">
                    <mxGeometry x="4810" y="416.32" width="120" height="80" as="geometry"/>
                </mxCell>
                <mxCell id="PBbKRViu295syacfndgN-162" value="START NODE" style="ellipse;whiteSpace=wrap;html=1;fillColor=#fff2cc;strokeColor=#d6b656;" vertex="1" parent="1">
                    <mxGeometry x="4815" y="156.32" width="120" height="80" as="geometry"/>
                </mxCell>
                <mxCell id="PBbKRViu295syacfndgN-163" value="" style="endArrow=classic;html=1;rounded=0;fontSize=24;entryX=1;entryY=0.5;entryDx=0;entryDy=0;fillColor=#e1d5e7;strokeColor=#9673a6;strokeWidth=3;" edge="1" parent="1" source="PBbKRViu295syacfndgN-152" target="PBbKRViu295syacfndgN-161">
                    <mxGeometry width="50" height="50" relative="1" as="geometry">
                        <mxPoint x="5100" y="369.71622641509435" as="sourcePoint"/>
                        <mxPoint x="5090" y="286.32" as="targetPoint"/>
                    </mxGeometry>
                </mxCell>
                <mxCell id="PBbKRViu295syacfndgN-164" value="" style="endArrow=classic;html=1;rounded=0;fontSize=24;exitX=0;exitY=0;exitDx=0;exitDy=0;strokeWidth=3;strokeColor=#FFD966;" edge="1" parent="1" source="PBbKRViu295syacfndgN-152" target="PBbKRViu295syacfndgN-162">
                    <mxGeometry width="50" height="50" relative="1" as="geometry">
                        <mxPoint x="5040" y="336.32" as="sourcePoint"/>
                        <mxPoint x="5090" y="286.32" as="targetPoint"/>
                    </mxGeometry>
                </mxCell>
                <mxCell id="PBbKRViu295syacfndgN-165" value="&lt;div&gt;df_engine.labels.to_start()&lt;/div&gt;" style="text;html=1;align=center;verticalAlign=middle;whiteSpace=wrap;rounded=0;rotation=20;strokeWidth=3;" vertex="1" parent="1">
                    <mxGeometry x="4960" y="206.32" width="205" height="50" as="geometry"/>
                </mxCell>
                <mxCell id="PBbKRViu295syacfndgN-166" value="df_engine.labels.to_fallback()" style="text;html=1;strokeColor=none;fillColor=none;align=center;verticalAlign=middle;whiteSpace=wrap;rounded=0;rotation=-25;" vertex="1" parent="1">
                    <mxGeometry x="4920" y="351.32" width="230" height="60" as="geometry"/>
                </mxCell>
                <mxCell id="PBbKRViu295syacfndgN-167" value="" style="endArrow=classic;html=1;fontSize=12;exitX=0.983;exitY=0.4;exitDx=0;exitDy=0;exitPerimeter=0;strokeWidth=3;curved=1;" edge="1" parent="1" source="PBbKRViu295syacfndgN-152" target="PBbKRViu295syacfndgN-152">
                    <mxGeometry width="50" height="50" relative="1" as="geometry">
                        <mxPoint x="5040" y="336.32" as="sourcePoint"/>
                        <mxPoint x="5330" y="276.32" as="targetPoint"/>
                        <Array as="points">
                            <mxPoint x="5310" y="290"/>
                            <mxPoint x="5410" y="316"/>
                            <mxPoint x="5390" y="350"/>
                            <mxPoint x="5330" y="360"/>
                            <mxPoint x="5290" y="360"/>
                        </Array>
                    </mxGeometry>
                </mxCell>
                <mxCell id="PBbKRViu295syacfndgN-168" value="df_engine.labels.repeat()" style="text;html=1;strokeColor=none;fillColor=none;align=center;verticalAlign=middle;whiteSpace=wrap;rounded=0;fontSize=12;" vertex="1" parent="1">
                    <mxGeometry x="5300" y="269.05" width="60" height="30" as="geometry"/>
                </mxCell>
                <mxCell id="PBbKRViu295syacfndgN-169" value="" style="endArrow=classic;html=1;strokeColor=#b85450;exitX=0.5;exitY=1;exitDx=0;exitDy=0;exitPerimeter=0;fillColor=#f8cecc;strokeWidth=3;" edge="1" parent="1" source="PBbKRViu295syacfndgN-152" target="PBbKRViu295syacfndgN-156">
                    <mxGeometry width="50" height="50" relative="1" as="geometry">
                        <mxPoint x="5140" y="296.32" as="sourcePoint"/>
                        <mxPoint x="5190" y="246.32" as="targetPoint"/>
                    </mxGeometry>
                </mxCell>
                <mxCell id="PBbKRViu295syacfndgN-170" value="&lt;div align=&quot;right&quot;&gt;&lt;font style=&quot;font-size: 18px;&quot;&gt;&lt;b&gt;HOW PRE_RESPONSE_PROCESSING works with response functions&lt;br&gt;&lt;/b&gt;&lt;/font&gt;&lt;/div&gt;" style="text;whiteSpace=wrap;html=1;fontSize=13;align=right;" vertex="1" parent="1">
                    <mxGeometry x="5390" y="18.819999999999993" width="800" height="50" as="geometry"/>
                </mxCell>
                <mxCell id="PBbKRViu295syacfndgN-171" value="Parameters of response function" style="ellipse;whiteSpace=wrap;html=1;fillColor=#f5f5f5;fontColor=#333333;strokeColor=#666666;" vertex="1" parent="1">
                    <mxGeometry x="5610" y="197.01" width="120" height="80" as="geometry"/>
                </mxCell>
                <mxCell id="PBbKRViu295syacfndgN-172" value="Context, actor" style="ellipse;whiteSpace=wrap;html=1;fillColor=#f5f5f5;strokeColor=#666666;fontColor=#333333;" vertex="1" parent="1">
                    <mxGeometry x="5610" y="356.32" width="120" height="80" as="geometry"/>
                </mxCell>
                <mxCell id="PBbKRViu295syacfndgN-173" value="" style="shape=flexArrow;endArrow=classic;html=1;rounded=0;strokeWidth=4;startArrow=none;" edge="1" parent="1" source="PBbKRViu295syacfndgN-183">
                    <mxGeometry width="50" height="50" relative="1" as="geometry">
                        <mxPoint x="6070" y="387.01000000000005" as="sourcePoint"/>
                        <mxPoint x="6360" y="386.32" as="targetPoint"/>
                    </mxGeometry>
                </mxCell>
                <mxCell id="PBbKRViu295syacfndgN-174" value="Answer: response for the user" style="ellipse;whiteSpace=wrap;html=1;fillColor=#fff2cc;strokeColor=#d6b656;" vertex="1" parent="1">
                    <mxGeometry x="6370" y="347.43" width="120" height="80" as="geometry"/>
                </mxCell>
                <mxCell id="PBbKRViu295syacfndgN-175" value="While executing response functions:" style="text;html=1;strokeColor=none;fillColor=none;align=center;verticalAlign=middle;whiteSpace=wrap;rounded=0;fontSize=18;" vertex="1" parent="1">
                    <mxGeometry x="5750" y="142.43" width="440" height="30" as="geometry"/>
                </mxCell>
                <mxCell id="PBbKRViu295syacfndgN-176" value="" style="endArrow=classic;html=1;rounded=0;fontSize=18;strokeWidth=3;exitX=1;exitY=0.5;exitDx=0;exitDy=0;" edge="1" parent="1" source="PBbKRViu295syacfndgN-171">
                    <mxGeometry width="50" height="50" relative="1" as="geometry">
                        <mxPoint x="5950" y="416.32" as="sourcePoint"/>
                        <mxPoint x="5940" y="237.32" as="targetPoint"/>
                    </mxGeometry>
                </mxCell>
                <mxCell id="PBbKRViu295syacfndgN-177" value="Response function" style="ellipse;whiteSpace=wrap;html=1;fontSize=18;fillColor=#b0e3e6;strokeColor=#0e8088;" vertex="1" parent="1">
                    <mxGeometry x="5940" y="199.93" width="120" height="80" as="geometry"/>
                </mxCell>
                <mxCell id="PBbKRViu295syacfndgN-178" value="" style="shape=flexArrow;endArrow=classic;html=1;rounded=0;fontSize=18;strokeWidth=3;exitX=1;exitY=0.5;exitDx=0;exitDy=0;" edge="1" parent="1" source="PBbKRViu295syacfndgN-177">
                    <mxGeometry width="50" height="50" relative="1" as="geometry">
                        <mxPoint x="5950" y="416.32" as="sourcePoint"/>
                        <mxPoint x="6180" y="240.32" as="targetPoint"/>
                    </mxGeometry>
                </mxCell>
                <mxCell id="PBbKRViu295syacfndgN-179" value="&lt;div&gt;Function, that takes as an input context and actor&lt;/div&gt;&lt;div&gt;&lt;br&gt; &lt;/div&gt;" style="ellipse;whiteSpace=wrap;html=1;fillColor=#d5e8d4;strokeColor=#82b366;" vertex="1" parent="1">
                    <mxGeometry x="6200" y="197.01000000000005" width="120" height="80" as="geometry"/>
                </mxCell>
                <mxCell id="PBbKRViu295syacfndgN-180" value="&lt;div&gt;Function, that takes as an input context and actor&lt;/div&gt;&lt;div&gt;&lt;br&gt; &lt;/div&gt;" style="ellipse;whiteSpace=wrap;html=1;fillColor=#d5e8d4;strokeColor=#82b366;" vertex="1" parent="1">
                    <mxGeometry x="5940" y="351.32" width="120" height="80" as="geometry"/>
                </mxCell>
                <mxCell id="PBbKRViu295syacfndgN-181" value="While Actor makes a turn, on every turn: " style="text;html=1;strokeColor=none;fillColor=none;align=center;verticalAlign=middle;whiteSpace=wrap;rounded=0;fontSize=18;" vertex="1" parent="1">
                    <mxGeometry x="5750" y="289.93" width="440" height="30" as="geometry"/>
                </mxCell>
                <mxCell id="PBbKRViu295syacfndgN-182" value="" style="endArrow=classic;html=1;rounded=0;fontSize=18;strokeWidth=3;entryX=0;entryY=0.5;entryDx=0;entryDy=0;" edge="1" parent="1" target="PBbKRViu295syacfndgN-180">
                    <mxGeometry width="50" height="50" relative="1" as="geometry">
                        <mxPoint x="5740" y="391.32" as="sourcePoint"/>
                        <mxPoint x="5790" y="328.46" as="targetPoint"/>
                    </mxGeometry>
                </mxCell>
                <mxCell id="PBbKRViu295syacfndgN-183" value="If response is Callable, call it with context and actor" style="text;html=1;strokeColor=default;fillColor=none;align=center;verticalAlign=middle;whiteSpace=wrap;rounded=0;" vertex="1" parent="1">
                    <mxGeometry x="6130" y="337.4300000000001" width="100" height="100" as="geometry"/>
                </mxCell>
                <mxCell id="PBbKRViu295syacfndgN-184" value="" style="shape=flexArrow;endArrow=none;html=1;rounded=0;strokeWidth=4;" edge="1" parent="1" target="PBbKRViu295syacfndgN-183">
                    <mxGeometry width="50" height="50" relative="1" as="geometry">
                        <mxPoint x="6070" y="387.01000000000005" as="sourcePoint"/>
                        <mxPoint x="6270" y="387.01000000000005" as="targetPoint"/>
                    </mxGeometry>
                </mxCell>
                <mxCell id="PBbKRViu295syacfndgN-185" value="&lt;font style=&quot;font-size: 14px;&quot;&gt;Among transitions with the highest confidence&lt;br&gt;&lt;/font&gt;&lt;div style=&quot;font-size: 14px;&quot;&gt;&lt;font style=&quot;font-size: 14px;&quot;&gt; where Condition is True, &lt;br&gt;&lt;/font&gt;&lt;/div&gt;&lt;div style=&quot;font-size: 14px;&quot;&gt;&lt;font style=&quot;font-size: 14px;&quot;&gt;we choose the first one&lt;/font&gt;&lt;/div&gt;" style="text;html=1;align=center;verticalAlign=middle;resizable=0;points=[];autosize=1;strokeColor=none;fillColor=none;fontSize=15;" vertex="1" parent="1">
                    <mxGeometry x="4435" y="57.17" width="350" height="60" as="geometry"/>
                </mxCell>
                <mxCell id="PBbKRViu295syacfndgN-186" value="TRANSITION3" style="rounded=0;whiteSpace=wrap;html=1;" vertex="1" parent="1">
                    <mxGeometry x="4440" y="266.84" width="120" height="60" as="geometry"/>
                </mxCell>
                <mxCell id="PBbKRViu295syacfndgN-187" value="&lt;div&gt;CONDITION3:&lt;/div&gt;&lt;div&gt;True&lt;br&gt;&lt;/div&gt;" style="rounded=0;whiteSpace=wrap;html=1;fillColor=#d5e8d4;strokeColor=#82b366;" vertex="1" parent="1">
                    <mxGeometry x="4560" y="266.84" width="90" height="60" as="geometry"/>
                </mxCell>
                <mxCell id="PBbKRViu295syacfndgN-188" value="&lt;div&gt;CONFIDENCE:&lt;/div&gt;2" style="rounded=0;whiteSpace=wrap;html=1;" vertex="1" parent="1">
                    <mxGeometry x="4650" y="266.84" width="110" height="60" as="geometry"/>
                </mxCell>
                <mxCell id="PBbKRViu295syacfndgN-189" value="" style="rounded=0;whiteSpace=wrap;html=1;strokeColor=#d6b656;fillColor=none;strokeWidth=3;" vertex="1" parent="1">
                    <mxGeometry x="4430" y="256.84" width="360" height="90" as="geometry"/>
                </mxCell>
                <mxCell id="2" value="&lt;b&gt;STRUCTURE OF NODE&lt;/b&gt;" style="text;html=1;strokeColor=none;fillColor=none;align=center;verticalAlign=middle;whiteSpace=wrap;rounded=0;fontSize=25;" vertex="1" parent="1">
                    <mxGeometry x="-1980.0000000000002" y="1187.8400000000001" width="459.09" height="12.5" as="geometry"/>
                </mxCell>
                <mxCell id="3" value="" style="rounded=1;whiteSpace=wrap;html=1;fontSize=14;" vertex="1" parent="1">
                    <mxGeometry x="-2419.09" y="961.3199999999999" width="290" height="300" as="geometry"/>
                </mxCell>
                <mxCell id="4" value="&lt;i&gt;MISC&lt;/i&gt;" style="text;html=1;strokeColor=none;fillColor=none;align=center;verticalAlign=middle;whiteSpace=wrap;rounded=0;fontSize=14;" vertex="1" parent="1">
                    <mxGeometry x="-2309.09" y="960.0000000000002" width="40" height="50" as="geometry"/>
                </mxCell>
                <mxCell id="5" value="" style="endArrow=none;html=1;rounded=0;fontSize=12;exitX=0;exitY=0.25;exitDx=0;exitDy=0;entryX=1;entryY=0.25;entryDx=0;entryDy=0;" edge="1" parent="1" source="3" target="3">
                    <mxGeometry width="50" height="50" relative="1" as="geometry">
                        <mxPoint x="-2229.09" y="981.3199999999999" as="sourcePoint"/>
                        <mxPoint x="-2179.09" y="931.3199999999999" as="targetPoint"/>
                    </mxGeometry>
                </mxCell>
                <mxCell id="6" value="" style="rounded=1;whiteSpace=wrap;html=1;fontSize=14;fillColor=none;" vertex="1" parent="1">
                    <mxGeometry x="-2409.09" y="1051.32" width="130" height="105" as="geometry"/>
                </mxCell>
                <mxCell id="7" value="" style="endArrow=none;html=1;rounded=0;fontSize=14;entryX=0;entryY=0.5;entryDx=0;entryDy=0;exitX=1;exitY=0.5;exitDx=0;exitDy=0;" edge="1" parent="1" source="6" target="6">
                    <mxGeometry width="50" height="50" relative="1" as="geometry">
                        <mxPoint x="-2309.09" y="1101.32" as="sourcePoint"/>
                        <mxPoint x="-1919.09" y="1176.32" as="targetPoint"/>
                    </mxGeometry>
                </mxCell>
                <mxCell id="8" value="Misc_key_1" style="text;html=1;strokeColor=none;fillColor=none;align=center;verticalAlign=middle;whiteSpace=wrap;rounded=0;fontSize=14;" vertex="1" parent="1">
                    <mxGeometry x="-2379.09" y="1061.32" width="70" height="33.81" as="geometry"/>
                </mxCell>
                <mxCell id="9" value="Value_1" style="text;html=1;strokeColor=none;fillColor=none;align=center;verticalAlign=middle;whiteSpace=wrap;rounded=0;fontSize=14;" vertex="1" parent="1">
                    <mxGeometry x="-2379.09" y="1113.53" width="60" height="30" as="geometry"/>
                </mxCell>
                <mxCell id="10" value="" style="rounded=1;whiteSpace=wrap;html=1;fontSize=14;fillColor=none;" vertex="1" parent="1">
                    <mxGeometry x="-2269.09" y="1051.32" width="130" height="105" as="geometry"/>
                </mxCell>
                <mxCell id="11" value="" style="endArrow=none;html=1;rounded=0;fontSize=14;entryX=0;entryY=0.5;entryDx=0;entryDy=0;exitX=1;exitY=0.5;exitDx=0;exitDy=0;" edge="1" parent="1" source="10" target="10">
                    <mxGeometry width="50" height="50" relative="1" as="geometry">
                        <mxPoint x="-2169.09" y="1101.32" as="sourcePoint"/>
                        <mxPoint x="-1779.09" y="1176.32" as="targetPoint"/>
                    </mxGeometry>
                </mxCell>
                <mxCell id="12" value="Misc_key_2" style="text;html=1;strokeColor=none;fillColor=none;align=center;verticalAlign=middle;whiteSpace=wrap;rounded=0;fontSize=14;" vertex="1" parent="1">
                    <mxGeometry x="-2239.09" y="1061.32" width="70" height="33.81" as="geometry"/>
                </mxCell>
                <mxCell id="13" value="Value_2" style="text;html=1;strokeColor=none;fillColor=none;align=center;verticalAlign=middle;whiteSpace=wrap;rounded=0;fontSize=14;" vertex="1" parent="1">
                    <mxGeometry x="-2239.09" y="1113.53" width="60" height="30" as="geometry"/>
                </mxCell>
                <mxCell id="14" value="" style="rounded=1;whiteSpace=wrap;html=1;fontSize=14;" vertex="1" parent="1">
                    <mxGeometry x="-1716.5900000000001" y="2111.3199999999997" width="290" height="300" as="geometry"/>
                </mxCell>
                <mxCell id="15" value="&lt;i&gt;PRE_RESPONSE_PROCESSING&lt;/i&gt;" style="text;html=1;strokeColor=none;fillColor=none;align=center;verticalAlign=middle;whiteSpace=wrap;rounded=0;fontSize=14;" vertex="1" parent="1">
                    <mxGeometry x="-1606.5900000000001" y="2110" width="40" height="50" as="geometry"/>
                </mxCell>
                <mxCell id="16" value="" style="endArrow=none;html=1;rounded=0;fontSize=12;exitX=0;exitY=0.25;exitDx=0;exitDy=0;entryX=1;entryY=0.25;entryDx=0;entryDy=0;" edge="1" parent="1" source="14" target="14">
                    <mxGeometry width="50" height="50" relative="1" as="geometry">
                        <mxPoint x="-1526.5900000000001" y="2131.3199999999997" as="sourcePoint"/>
                        <mxPoint x="-1476.5900000000001" y="2081.3199999999997" as="targetPoint"/>
                    </mxGeometry>
                </mxCell>
                <mxCell id="17" value="" style="rounded=1;whiteSpace=wrap;html=1;fontSize=14;fillColor=none;" vertex="1" parent="1">
                    <mxGeometry x="-1706.5900000000001" y="2201.3199999999997" width="130" height="105" as="geometry"/>
                </mxCell>
                <mxCell id="18" value="" style="endArrow=none;html=1;rounded=0;fontSize=14;entryX=0;entryY=0.5;entryDx=0;entryDy=0;exitX=1;exitY=0.5;exitDx=0;exitDy=0;" edge="1" parent="1" source="17" target="17">
                    <mxGeometry width="50" height="50" relative="1" as="geometry">
                        <mxPoint x="-1606.5900000000001" y="2251.3199999999997" as="sourcePoint"/>
                        <mxPoint x="-1216.59" y="2326.3199999999997" as="targetPoint"/>
                    </mxGeometry>
                </mxCell>
                <mxCell id="19" value="&lt;font style=&quot;font-size: 12px;&quot;&gt;Processing_name_1&lt;/font&gt;" style="text;html=1;strokeColor=none;fillColor=none;align=center;verticalAlign=middle;whiteSpace=wrap;rounded=0;fontSize=14;" vertex="1" parent="1">
                    <mxGeometry x="-1676.5900000000001" y="2211.3199999999997" width="70" height="33.81" as="geometry"/>
                </mxCell>
                <mxCell id="20" value="Processing_1" style="text;html=1;strokeColor=none;fillColor=none;align=center;verticalAlign=middle;whiteSpace=wrap;rounded=0;fontSize=14;" vertex="1" parent="1">
                    <mxGeometry x="-1676.5900000000001" y="2263.5299999999997" width="60" height="30" as="geometry"/>
                </mxCell>
                <mxCell id="21" value="" style="rounded=1;whiteSpace=wrap;html=1;fontSize=14;fillColor=none;" vertex="1" parent="1">
                    <mxGeometry x="-1566.5900000000001" y="2201.3199999999997" width="130" height="105" as="geometry"/>
                </mxCell>
                <mxCell id="22" value="" style="endArrow=none;html=1;rounded=0;fontSize=14;entryX=0;entryY=0.5;entryDx=0;entryDy=0;exitX=1;exitY=0.5;exitDx=0;exitDy=0;" edge="1" parent="1" source="21" target="21">
                    <mxGeometry width="50" height="50" relative="1" as="geometry">
                        <mxPoint x="-1466.5900000000001" y="2251.3199999999997" as="sourcePoint"/>
                        <mxPoint x="-1076.59" y="2326.3199999999997" as="targetPoint"/>
                    </mxGeometry>
                </mxCell>
                <mxCell id="23" value="&lt;font style=&quot;font-size: 12px;&quot;&gt;Processing_name_2&lt;/font&gt;" style="text;html=1;strokeColor=none;fillColor=none;align=center;verticalAlign=middle;whiteSpace=wrap;rounded=0;fontSize=14;" vertex="1" parent="1">
                    <mxGeometry x="-1536.5900000000001" y="2211.3199999999997" width="70" height="33.81" as="geometry"/>
                </mxCell>
                <mxCell id="24" value="Processing_2" style="text;html=1;strokeColor=none;fillColor=none;align=center;verticalAlign=middle;whiteSpace=wrap;rounded=0;fontSize=14;" vertex="1" parent="1">
                    <mxGeometry x="-1536.5900000000001" y="2263.5299999999997" width="60" height="30" as="geometry"/>
                </mxCell>
                <mxCell id="25" value="" style="rounded=1;whiteSpace=wrap;html=1;fontSize=14;" vertex="1" parent="1">
                    <mxGeometry x="-1939.0900000000001" y="1676" width="290" height="300" as="geometry"/>
                </mxCell>
                <mxCell id="26" value="&lt;i&gt;RESPONSE&lt;/i&gt;" style="text;html=1;strokeColor=none;fillColor=none;align=center;verticalAlign=middle;whiteSpace=wrap;rounded=0;fontSize=14;" vertex="1" parent="1">
                    <mxGeometry x="-1809.09" y="1662.8400000000001" width="40" height="50" as="geometry"/>
                </mxCell>
                <mxCell id="27" value="Response string / response function" style="text;html=1;strokeColor=none;fillColor=none;align=center;verticalAlign=middle;whiteSpace=wrap;rounded=0;fontSize=14;" vertex="1" parent="1">
                    <mxGeometry x="-1851.59" y="1834.1599999999999" width="135" height="30" as="geometry"/>
                </mxCell>
                <mxCell id="28" value="" style="endArrow=none;html=1;rounded=0;fontSize=12;exitX=0;exitY=0.25;exitDx=0;exitDy=0;entryX=1;entryY=0.25;entryDx=0;entryDy=0;" edge="1" parent="1" source="25" target="25">
                    <mxGeometry width="50" height="50" relative="1" as="geometry">
                        <mxPoint x="-1729.09" y="1684.1599999999999" as="sourcePoint"/>
                        <mxPoint x="-1679.09" y="1634.1599999999999" as="targetPoint"/>
                    </mxGeometry>
                </mxCell>
                <mxCell id="29" value="" style="rounded=1;whiteSpace=wrap;html=1;fontSize=14;" vertex="1" parent="1">
                    <mxGeometry x="-1940" y="1300.28" width="330" height="295" as="geometry"/>
                </mxCell>
                <mxCell id="30" value="&lt;i&gt;PRE_TRANSITION_PROCESSING&lt;/i&gt;" style="text;html=1;strokeColor=none;fillColor=none;align=center;verticalAlign=middle;whiteSpace=wrap;rounded=0;fontSize=14;" vertex="1" parent="1">
                    <mxGeometry x="-1820" y="1304.63" width="40" height="50" as="geometry"/>
                </mxCell>
                <mxCell id="31" value="" style="endArrow=none;html=1;rounded=0;fontSize=12;exitX=0;exitY=0.25;exitDx=0;exitDy=0;entryX=1;entryY=0.25;entryDx=0;entryDy=0;" edge="1" parent="1" source="29" target="29">
                    <mxGeometry width="50" height="50" relative="1" as="geometry">
                        <mxPoint x="-1740" y="1325.9499999999998" as="sourcePoint"/>
                        <mxPoint x="-1690" y="1275.9499999999998" as="targetPoint"/>
                    </mxGeometry>
                </mxCell>
                <mxCell id="32" value="" style="rounded=1;whiteSpace=wrap;html=1;fontSize=14;fillColor=none;" vertex="1" parent="1">
                    <mxGeometry x="-1920" y="1395.81" width="130" height="105" as="geometry"/>
                </mxCell>
                <mxCell id="33" value="" style="endArrow=none;html=1;rounded=0;fontSize=14;entryX=0;entryY=0.5;entryDx=0;entryDy=0;exitX=1;exitY=0.5;exitDx=0;exitDy=0;" edge="1" parent="1" source="32" target="32">
                    <mxGeometry width="50" height="50" relative="1" as="geometry">
                        <mxPoint x="-1820" y="1445.81" as="sourcePoint"/>
                        <mxPoint x="-1430" y="1520.81" as="targetPoint"/>
                    </mxGeometry>
                </mxCell>
                <mxCell id="34" value="&lt;font style=&quot;font-size: 12px;&quot;&gt;Processing_name_1&lt;/font&gt;" style="text;html=1;strokeColor=none;fillColor=none;align=center;verticalAlign=middle;whiteSpace=wrap;rounded=0;fontSize=14;" vertex="1" parent="1">
                    <mxGeometry x="-1890" y="1405.81" width="70" height="33.81" as="geometry"/>
                </mxCell>
                <mxCell id="35" value="Processing_1" style="text;html=1;strokeColor=none;fillColor=none;align=center;verticalAlign=middle;whiteSpace=wrap;rounded=0;fontSize=14;" vertex="1" parent="1">
                    <mxGeometry x="-1890" y="1458.02" width="60" height="30" as="geometry"/>
                </mxCell>
                <mxCell id="36" value="" style="rounded=1;whiteSpace=wrap;html=1;fontSize=14;fillColor=none;" vertex="1" parent="1">
                    <mxGeometry x="-1760" y="1395.81" width="130" height="105" as="geometry"/>
                </mxCell>
                <mxCell id="37" value="" style="endArrow=none;html=1;rounded=0;fontSize=14;entryX=0;entryY=0.5;entryDx=0;entryDy=0;exitX=1;exitY=0.5;exitDx=0;exitDy=0;" edge="1" parent="1" source="36" target="36">
                    <mxGeometry width="50" height="50" relative="1" as="geometry">
                        <mxPoint x="-1660" y="1445.81" as="sourcePoint"/>
                        <mxPoint x="-1270" y="1520.81" as="targetPoint"/>
                    </mxGeometry>
                </mxCell>
                <mxCell id="38" value="&lt;font style=&quot;font-size: 12px;&quot;&gt;Processing_name_2&lt;/font&gt;" style="text;html=1;strokeColor=none;fillColor=none;align=center;verticalAlign=middle;whiteSpace=wrap;rounded=0;fontSize=14;" vertex="1" parent="1">
                    <mxGeometry x="-1730" y="1403.31" width="70" height="36.31" as="geometry"/>
                </mxCell>
                <mxCell id="39" value="Processing_2" style="text;html=1;strokeColor=none;fillColor=none;align=center;verticalAlign=middle;whiteSpace=wrap;rounded=0;fontSize=14;" vertex="1" parent="1">
                    <mxGeometry x="-1725" y="1458.02" width="60" height="30" as="geometry"/>
                </mxCell>
                <mxCell id="40" value="" style="rounded=1;whiteSpace=wrap;html=1;fontSize=14;" vertex="1" parent="1">
                    <mxGeometry x="-1549.09" y="1309.1599999999999" width="330" height="295" as="geometry"/>
                </mxCell>
                <mxCell id="41" value="&lt;i&gt;TRANSITIONS&lt;/i&gt;" style="text;html=1;strokeColor=none;fillColor=none;align=center;verticalAlign=middle;whiteSpace=wrap;rounded=0;fontSize=14;" vertex="1" parent="1">
                    <mxGeometry x="-1436.58" y="1294.1599999999999" width="90" height="61.32" as="geometry"/>
                </mxCell>
                <mxCell id="42" value="" style="endArrow=none;html=1;rounded=0;fontSize=12;exitX=0;exitY=0.25;exitDx=0;exitDy=0;entryX=1;entryY=0.25;entryDx=0;entryDy=0;" edge="1" parent="1" source="40" target="40">
                    <mxGeometry width="50" height="50" relative="1" as="geometry">
                        <mxPoint x="-1356.58" y="1326.8" as="sourcePoint"/>
                        <mxPoint x="-1306.58" y="1276.8" as="targetPoint"/>
                    </mxGeometry>
                </mxCell>
                <mxCell id="43" value="" style="rounded=1;whiteSpace=wrap;html=1;fontSize=14;fillColor=none;" vertex="1" parent="1">
                    <mxGeometry x="-1536.58" y="1396.6599999999999" width="130" height="105" as="geometry"/>
                </mxCell>
                <mxCell id="44" value="" style="endArrow=none;html=1;rounded=0;fontSize=14;entryX=0;entryY=0.5;entryDx=0;entryDy=0;exitX=1;exitY=0.5;exitDx=0;exitDy=0;" edge="1" parent="1" source="43" target="43">
                    <mxGeometry width="50" height="50" relative="1" as="geometry">
                        <mxPoint x="-1436.58" y="1446.6599999999999" as="sourcePoint"/>
                        <mxPoint x="-1046.58" y="1521.6599999999999" as="targetPoint"/>
                    </mxGeometry>
                </mxCell>
                <mxCell id="45" value="&lt;div&gt;(FLOW, NODE)&lt;/div&gt;&lt;div&gt;or function from df_engine.labels&lt;br&gt;&lt;/div&gt;" style="text;html=1;strokeColor=none;fillColor=none;align=center;verticalAlign=middle;whiteSpace=wrap;rounded=0;fontSize=14;" vertex="1" parent="1">
                    <mxGeometry x="-1542.1" y="1406.6599999999999" width="140" height="33.81" as="geometry"/>
                </mxCell>
                <mxCell id="46" value="&lt;div style=&quot;font-size: 13px;&quot;&gt;&lt;font style=&quot;font-size: 13px;&quot;&gt;Condition or&lt;br&gt;&lt;/font&gt;&lt;/div&gt;&lt;div style=&quot;font-size: 13px;&quot;&gt;&lt;font style=&quot;font-size: 13px;&quot;&gt;&amp;nbsp;condition function&lt;br&gt;&lt;/font&gt;&lt;/div&gt;" style="text;html=1;strokeColor=none;fillColor=none;align=center;verticalAlign=middle;whiteSpace=wrap;rounded=0;fontSize=14;" vertex="1" parent="1">
                    <mxGeometry x="-1549.09" y="1454.1599999999999" width="160" height="40" as="geometry"/>
                </mxCell>
                <mxCell id="47" value="" style="rounded=1;whiteSpace=wrap;html=1;fontSize=14;fillColor=none;" vertex="1" parent="1">
                    <mxGeometry x="-1376.58" y="1396.6599999999999" width="144.48" height="106.38" as="geometry"/>
                </mxCell>
                <mxCell id="48" value="" style="endArrow=none;html=1;rounded=0;fontSize=14;entryX=0;entryY=0.5;entryDx=0;entryDy=0;exitX=1;exitY=0.5;exitDx=0;exitDy=0;" edge="1" parent="1" source="47" target="47">
                    <mxGeometry width="50" height="50" relative="1" as="geometry">
                        <mxPoint x="-1276.58" y="1446.6599999999999" as="sourcePoint"/>
                        <mxPoint x="-886.5799999999999" y="1521.6599999999999" as="targetPoint"/>
                    </mxGeometry>
                </mxCell>
                <mxCell id="49" value="&lt;font style=&quot;font-size: 24px;&quot;&gt;&lt;b&gt;NODE&lt;/b&gt;&lt;/font&gt;" style="text;html=1;strokeColor=none;fillColor=none;align=center;verticalAlign=middle;whiteSpace=wrap;rounded=0;fontSize=12;" vertex="1" parent="1">
                    <mxGeometry x="-1805" y="1244.1599999999999" width="60" height="30" as="geometry"/>
                </mxCell>
                <mxCell id="51" value="&lt;div style=&quot;font-size: 13px;&quot;&gt;&lt;font style=&quot;font-size: 13px;&quot;&gt;Condition or&lt;br&gt;&lt;/font&gt;&lt;/div&gt;&lt;div style=&quot;font-size: 13px;&quot;&gt;&lt;font style=&quot;font-size: 13px;&quot;&gt;&amp;nbsp;condition function&lt;br&gt;&lt;/font&gt;&lt;/div&gt;" style="text;html=1;strokeColor=none;fillColor=none;align=center;verticalAlign=middle;whiteSpace=wrap;rounded=0;fontSize=14;" vertex="1" parent="1">
                    <mxGeometry x="-1379.09" y="1456.37" width="160" height="40" as="geometry"/>
                </mxCell>
                <mxCell id="52" value="&lt;div&gt;(FLOW, NODE)&lt;/div&gt;&lt;div&gt;or function from df_engine.labels&lt;br&gt;&lt;/div&gt;" style="text;html=1;strokeColor=none;fillColor=none;align=center;verticalAlign=middle;whiteSpace=wrap;rounded=0;fontSize=14;" vertex="1" parent="1">
                    <mxGeometry x="-1372.1" y="1407.77" width="140" height="33.81" as="geometry"/>
                </mxCell>
                <mxCell id="53" value="" style="rounded=1;whiteSpace=wrap;html=1;" vertex="1" parent="1">
                    <mxGeometry x="-2820.26" y="1951.32" width="235" height="120" as="geometry"/>
                </mxCell>
                <mxCell id="69" style="edgeStyle=none;html=1;exitX=0.5;exitY=1;exitDx=0;exitDy=0;entryX=0.5;entryY=0;entryDx=0;entryDy=0;" edge="1" parent="1" source="54" target="53">
                    <mxGeometry relative="1" as="geometry"/>
                </mxCell>
                <mxCell id="54" value="MISC" style="rounded=1;whiteSpace=wrap;html=1;fillColor=#ffe6cc;strokeColor=#d79b00;" vertex="1" parent="1">
                    <mxGeometry x="-2753.2200000000003" y="1873.3000000000002" width="100.91" height="29.19" as="geometry"/>
                </mxCell>
                <mxCell id="58" style="edgeStyle=none;html=1;exitX=1;exitY=0.5;exitDx=0;exitDy=0;entryX=0;entryY=0.5;entryDx=0;entryDy=0;" edge="1" parent="1" source="59" target="60">
                    <mxGeometry relative="1" as="geometry"/>
                </mxCell>
                <mxCell id="59" value="KEY" style="rounded=1;whiteSpace=wrap;html=1;fillColor=#dae8fc;strokeColor=#6c8ebf;" vertex="1" parent="1">
                    <mxGeometry x="-2799.3500000000004" y="2002.6100000000001" width="69.09" height="15.37" as="geometry"/>
                </mxCell>
                <mxCell id="60" value="VALUE" style="rounded=1;whiteSpace=wrap;html=1;fillColor=#d5e8d4;strokeColor=#82b366;" vertex="1" parent="1">
                    <mxGeometry x="-2683.8900000000003" y="2002.6100000000001" width="69.09" height="15.37" as="geometry"/>
                </mxCell>
                <mxCell id="61" style="edgeStyle=none;html=1;exitX=1;exitY=0.5;exitDx=0;exitDy=0;entryX=0;entryY=0.5;entryDx=0;entryDy=0;" edge="1" parent="1" source="62" target="63">
                    <mxGeometry relative="1" as="geometry"/>
                </mxCell>
                <mxCell id="62" value="KEY" style="rounded=1;whiteSpace=wrap;html=1;fillColor=#dae8fc;strokeColor=#6c8ebf;" vertex="1" parent="1">
                    <mxGeometry x="-2799.3500000000004" y="2035.1000000000001" width="69.09" height="15.37" as="geometry"/>
                </mxCell>
                <mxCell id="63" value="VALUE" style="rounded=1;whiteSpace=wrap;html=1;fillColor=#d5e8d4;strokeColor=#82b366;" vertex="1" parent="1">
                    <mxGeometry x="-2683.8900000000003" y="2035.1000000000001" width="69.09" height="15.37" as="geometry"/>
                </mxCell>
                <mxCell id="64" value="Custom data of user (dictionary)" style="text;html=1;strokeColor=none;fillColor=none;align=center;verticalAlign=middle;whiteSpace=wrap;rounded=0;" vertex="1" parent="1">
                    <mxGeometry x="-2772.7700000000004" y="1828.63" width="140" height="30" as="geometry"/>
                </mxCell>
                <mxCell id="66" style="edgeStyle=none;html=1;exitX=1;exitY=0.5;exitDx=0;exitDy=0;entryX=0;entryY=0.5;entryDx=0;entryDy=0;" edge="1" parent="1" source="67" target="68">
                    <mxGeometry relative="1" as="geometry"/>
                </mxCell>
                <mxCell id="67" value="KEY" style="rounded=1;whiteSpace=wrap;html=1;fillColor=#dae8fc;strokeColor=#6c8ebf;" vertex="1" parent="1">
                    <mxGeometry x="-2799.3500000000004" y="1973.7400000000002" width="69.09" height="15.37" as="geometry"/>
                </mxCell>
                <mxCell id="68" value="VALUE" style="rounded=1;whiteSpace=wrap;html=1;fillColor=#d5e8d4;strokeColor=#82b366;" vertex="1" parent="1">
                    <mxGeometry x="-2683.8900000000003" y="1973.7400000000002" width="69.09" height="15.37" as="geometry"/>
                </mxCell>
                <mxCell id="70" value="Notation&lt;br&gt;" style="rounded=1;whiteSpace=wrap;html=1;verticalAlign=top;" vertex="1" parent="1">
                    <mxGeometry x="-2820.2599999999998" y="1375.1" width="240.52" height="134.9" as="geometry"/>
                </mxCell>
                <mxCell id="72" value="" style="endArrow=classic;html=1;" edge="1" parent="1">
                    <mxGeometry width="50" height="50" relative="1" as="geometry">
                        <mxPoint x="-2809.4999999999995" y="1417.57" as="sourcePoint"/>
                        <mxPoint x="-2759.9799999999996" y="1417.26" as="targetPoint"/>
                    </mxGeometry>
                </mxCell>
                <mxCell id="73" value="key-value mapping" style="text;html=1;strokeColor=none;fillColor=none;align=left;verticalAlign=middle;whiteSpace=wrap;rounded=0;" vertex="1" parent="1">
                    <mxGeometry x="-2590" y="1214.16" width="140" height="30" as="geometry"/>
                </mxCell>
                <mxCell id="74" value="" style="rounded=1;whiteSpace=wrap;html=1;fillColor=#dae8fc;strokeColor=#6c8ebf;" vertex="1" parent="1">
                    <mxGeometry x="-2808.83" y="1433.2100000000003" width="69.09" height="15.37" as="geometry"/>
                </mxCell>
                <mxCell id="75" value="key" style="text;html=1;strokeColor=none;fillColor=none;align=left;verticalAlign=middle;whiteSpace=wrap;rounded=0;" vertex="1" parent="1">
                    <mxGeometry x="-2709.74" y="1425.9" width="80" height="30" as="geometry"/>
                </mxCell>
                <mxCell id="76" value="" style="rounded=1;whiteSpace=wrap;html=1;fillColor=#d5e8d4;strokeColor=#82b366;" vertex="1" parent="1">
                    <mxGeometry x="-2808.83" y="1455.9000000000003" width="69.09" height="15.37" as="geometry"/>
                </mxCell>
                <mxCell id="77" value="value" style="text;html=1;strokeColor=none;fillColor=none;align=left;verticalAlign=middle;whiteSpace=wrap;rounded=0;" vertex="1" parent="1">
                    <mxGeometry x="-2709.74" y="1448.5800000000002" width="80" height="30" as="geometry"/>
                </mxCell>
                <mxCell id="78" value="NODE" style="rounded=1;whiteSpace=wrap;html=1;verticalAlign=top;fillColor=#f5f5f5;strokeColor=#666666;fontColor=#333333;" vertex="1" parent="1">
                    <mxGeometry x="-2820.26" y="1560" width="320.52" height="232.16" as="geometry"/>
                </mxCell>
                <mxCell id="79" value="MISC" style="rounded=1;whiteSpace=wrap;html=1;fillColor=#ffe6cc;strokeColor=#d79b00;" vertex="1" parent="1">
                    <mxGeometry x="-2786.69" y="1595" width="256.95" height="29.19" as="geometry"/>
                </mxCell>
                <mxCell id="80" value="&lt;span style=&quot;font-size: 14px&quot;&gt;RESPONSE&lt;/span&gt;" style="rounded=1;whiteSpace=wrap;html=1;fillColor=#ffe6cc;strokeColor=#d79b00;" vertex="1" parent="1">
                    <mxGeometry x="-2787.69" y="1640" width="257.95" height="30" as="geometry"/>
                </mxCell>
                <mxCell id="83" value="&lt;span style=&quot;font-size: 14px&quot;&gt;PRE_RESPONSE_PROCESSING&lt;/span&gt;" style="rounded=1;whiteSpace=wrap;html=1;fillColor=#ffe6cc;strokeColor=#d79b00;" vertex="1" parent="1">
                    <mxGeometry x="-2790.26" y="1686" width="257.95" height="30" as="geometry"/>
                </mxCell>
                <mxCell id="84" value="" style="rounded=1;whiteSpace=wrap;html=1;fillColor=#f5f5f5;strokeColor=#666666;fontColor=#333333;" vertex="1" parent="1">
                    <mxGeometry x="-2808.83" y="1481.0000000000002" width="69.09" height="15.37" as="geometry"/>
                </mxCell>
                <mxCell id="85" value="node scope" style="text;html=1;strokeColor=none;fillColor=none;align=left;verticalAlign=middle;whiteSpace=wrap;rounded=0;" vertex="1" parent="1">
                    <mxGeometry x="-2709.74" y="1473.0400000000002" width="80" height="30" as="geometry"/>
                </mxCell>
                <mxCell id="86" value="key-value mapping" style="text;html=1;strokeColor=none;fillColor=none;align=left;verticalAlign=middle;whiteSpace=wrap;rounded=0;" vertex="1" parent="1">
                    <mxGeometry x="-2709.74" y="1403.21" width="120" height="30" as="geometry"/>
                </mxCell>
                <mxCell id="87" value="" style="rounded=1;whiteSpace=wrap;html=1;" vertex="1" parent="1">
                    <mxGeometry x="-2560" y="1951.32" width="235" height="120" as="geometry"/>
                </mxCell>
                <mxCell id="88" style="edgeStyle=none;html=1;exitX=0.5;exitY=1;exitDx=0;exitDy=0;entryX=0.5;entryY=0;entryDx=0;entryDy=0;" edge="1" parent="1" source="89" target="87">
                    <mxGeometry relative="1" as="geometry"/>
                </mxCell>
                <mxCell id="89" value="&lt;i style=&quot;font-size: 14px&quot;&gt;TRANSITIONS&lt;/i&gt;" style="rounded=1;whiteSpace=wrap;html=1;fillColor=#ffe6cc;strokeColor=#d79b00;" vertex="1" parent="1">
                    <mxGeometry x="-2492.96" y="1873.3000000000002" width="100.91" height="29.19" as="geometry"/>
                </mxCell>
                <mxCell id="90" style="edgeStyle=none;html=1;exitX=1;exitY=0.5;exitDx=0;exitDy=0;entryX=0;entryY=0.5;entryDx=0;entryDy=0;" edge="1" parent="1" source="91" target="92">
                    <mxGeometry relative="1" as="geometry"/>
                </mxCell>
                <mxCell id="91" value="KEY" style="rounded=1;whiteSpace=wrap;html=1;fillColor=#dae8fc;strokeColor=#6c8ebf;" vertex="1" parent="1">
                    <mxGeometry x="-2539.09" y="2002.6100000000001" width="69.09" height="15.37" as="geometry"/>
                </mxCell>
                <mxCell id="92" value="VALUE" style="rounded=1;whiteSpace=wrap;html=1;fillColor=#d5e8d4;strokeColor=#82b366;" vertex="1" parent="1">
                    <mxGeometry x="-2423.63" y="2002.6100000000001" width="69.09" height="15.37" as="geometry"/>
                </mxCell>
                <mxCell id="93" style="edgeStyle=none;html=1;exitX=1;exitY=0.5;exitDx=0;exitDy=0;entryX=0;entryY=0.5;entryDx=0;entryDy=0;" edge="1" parent="1" source="94" target="95">
                    <mxGeometry relative="1" as="geometry"/>
                </mxCell>
                <mxCell id="94" value="KEY" style="rounded=1;whiteSpace=wrap;html=1;fillColor=#dae8fc;strokeColor=#6c8ebf;" vertex="1" parent="1">
                    <mxGeometry x="-2539.09" y="2035.1000000000001" width="69.09" height="15.37" as="geometry"/>
                </mxCell>
                <mxCell id="95" value="VALUE" style="rounded=1;whiteSpace=wrap;html=1;fillColor=#d5e8d4;strokeColor=#82b366;" vertex="1" parent="1">
                    <mxGeometry x="-2423.63" y="2035.1000000000001" width="69.09" height="15.37" as="geometry"/>
                </mxCell>
                <mxCell id="96" value="Custom data of user (dictionary)" style="text;html=1;strokeColor=none;fillColor=none;align=center;verticalAlign=middle;whiteSpace=wrap;rounded=0;" vertex="1" parent="1">
                    <mxGeometry x="-2512.51" y="1828.63" width="140" height="30" as="geometry"/>
                </mxCell>
                <mxCell id="97" style="edgeStyle=none;html=1;exitX=1;exitY=0.5;exitDx=0;exitDy=0;entryX=0;entryY=0.5;entryDx=0;entryDy=0;" edge="1" parent="1" source="98" target="99">
                    <mxGeometry relative="1" as="geometry"/>
                </mxCell>
                <mxCell id="98" value="KEY" style="rounded=1;whiteSpace=wrap;html=1;fillColor=#dae8fc;strokeColor=#6c8ebf;" vertex="1" parent="1">
                    <mxGeometry x="-2539.09" y="1973.7400000000002" width="69.09" height="15.37" as="geometry"/>
                </mxCell>
                <mxCell id="99" value="VALUE" style="rounded=1;whiteSpace=wrap;html=1;fillColor=#d5e8d4;strokeColor=#82b366;" vertex="1" parent="1">
                    <mxGeometry x="-2423.63" y="1973.7400000000002" width="69.09" height="15.37" as="geometry"/>
                </mxCell>
            </root>
        </mxGraphModel>
    </diagram>
</mxfile>